<?xml version="1.0" standalone="no"?>
<!DOCTYPE svg PUBLIC "-//W3C//DTD SVG 20010904//EN"
 "http://www.w3.org/TR/2001/REC-SVG-20010904/DTD/svg10.dtd">
<svg version="1.0" xmlns="http://www.w3.org/2000/svg"
 width="2480.000000pt" height="2480.000000pt" viewBox="0 0 2480.000000 2480.000000"
 preserveAspectRatio="xMidYMid meet">
<metadata>
Created by potrace 1.11, written by Peter Selinger 2001-2013
</metadata>
<g transform="translate(0.000000,2480.000000) scale(0.100000,-0.100000)"
fill="#000000" stroke="none">
<path d="M10714 20514 c-991 -991 -1799 -1806 -1796 -1809 3 -3 7 -11 8 -18 1
-7 16 -61 34 -120 17 -59 33 -115 35 -125 2 -9 4 -18 5 -19 2 -2 4 -7 5 -13 1
-5 3 -11 5 -12 1 -2 3 -10 5 -18 1 -8 51 -179 110 -380 59 -201 108 -372 110
-380 2 -8 18 -62 35 -120 43 -144 121 -412 125 -430 2 -8 4 -15 5 -15 1 0 3
-7 5 -15 2 -8 15 -55 30 -105 15 -49 31 -103 35 -120 5 -16 29 -100 55 -185
25 -85 48 -162 50 -171 2 -9 18 -63 35 -120 17 -57 33 -111 35 -120 2 -9 18
-63 35 -120 17 -57 32 -108 34 -114 1 -5 5 -16 9 -22 5 -7 6 -13 3 -13 -2 0
-1 -12 4 -27 22 -71 62 -209 64 -218 1 -5 5 -16 9 -22 5 -7 6 -13 4 -13 -3 0
13 -57 35 -127 21 -71 41 -137 43 -148 3 -11 21 -74 41 -140 19 -66 44 -149
54 -185 10 -36 44 -153 75 -260 32 -107 58 -199 59 -205 1 -5 5 -15 8 -21 4
-6 9 -21 11 -35 3 -13 19 -71 37 -129 17 -58 33 -112 35 -120 2 -8 35 -125 75
-260 40 -135 74 -252 75 -260 2 -8 4 -15 5 -15 1 0 3 -8 5 -17 2 -9 17 -63 35
-120 18 -56 34 -112 37 -123 8 -37 11 -50 13 -52 2 -2 4 -7 5 -13 1 -5 3 -11
5 -12 1 -2 3 -10 5 -18 1 -8 13 -49 25 -90 12 -41 23 -79 25 -85 1 -5 4 -17 7
-25 3 -8 20 -67 38 -130 18 -63 35 -122 38 -130 3 -8 6 -18 7 -22 2 -5 3 -9 4
-10 2 -2 4 -14 7 -27 2 -13 17 -67 33 -120 62 -202 113 -377 117 -398 2 -12 9
-32 14 -45 7 -16 9 10 5 92 -3 63 -7 129 -10 145 -2 17 -7 53 -10 80 -12 104
-23 173 -42 265 -22 106 -21 104 -24 110 -1 3 -3 10 -4 15 -2 6 -4 12 -5 15
-3 8 -8 32 -15 65 -3 17 -17 77 -31 135 -14 58 -27 117 -29 132 -2 15 -6 35
-9 45 -3 10 -8 34 -11 53 -2 19 -7 49 -10 65 -17 90 -35 195 -39 230 -3 22 -7
49 -10 61 -4 19 -13 93 -21 174 -11 101 -17 168 -20 190 -2 14 -6 61 -10 105
-3 44 -8 98 -11 120 -3 38 -8 120 -21 350 -5 100 -6 572 -2 801 1 67 -1 126
-5 132 -3 6 -2 13 4 17 6 4 8 10 5 15 -3 4 15 32 39 60 29 34 47 65 50 89 8
50 16 146 21 239 5 92 11 148 19 182 3 14 8 36 10 50 10 53 16 73 36 128 41
110 80 168 153 234 102 91 144 121 212 157 58 30 66 31 203 35 78 2 152 2 162
-1 20 -5 20 -6 0 -33 -11 -16 -20 -33 -20 -39 0 -15 23 -14 38 1 10 10 15 10
22 -2 14 -23 43 -156 55 -255 8 -67 17 -122 28 -165 4 -14 9 -36 11 -50 6 -32
70 -334 98 -460 26 -120 29 -263 6 -306 -25 -46 -97 -112 -154 -140 -92 -45
-197 -37 -319 24 -180 90 -297 226 -359 417 -19 58 -49 101 -64 91 -7 -4 -6
-18 5 -44 8 -20 24 -70 34 -112 11 -41 29 -94 41 -118 12 -23 19 -45 16 -48
-3 -3 -47 9 -98 26 -92 30 -108 34 -182 46 -30 5 -38 3 -38 -9 0 -10 19 -21
58 -33 31 -9 63 -17 70 -17 6 0 12 -4 12 -9 0 -4 8 -8 18 -8 10 0 23 -5 30
-12 7 -7 12 -9 12 -6 0 17 209 -86 245 -121 80 -76 238 -168 298 -175 13 -1
27 -5 32 -8 6 -2 45 -4 88 -3 93 3 174 38 252 110 46 43 51 45 63 28 7 -10 31
-44 53 -76 28 -40 57 -67 95 -88 30 -17 54 -34 54 -38 0 -3 11 -19 25 -34 l26
-27 -33 -1 c-77 -1 -157 -11 -208 -26 -30 -10 -58 -16 -62 -15 -5 1 -8 -2 -8
-6 0 -5 -6 -9 -13 -9 -32 0 -319 -142 -392 -194 -109 -77 -263 -224 -250 -238
7 -7 34 12 85 60 41 39 91 82 110 97 19 15 44 35 55 45 17 15 202 109 270 137
19 8 54 21 65 25 3 1 17 7 33 13 107 45 154 54 290 57 79 2 150 -1 165 -6 30
-12 164 -15 181 -5 28 18 4 -15 -60 -84 -82 -87 -164 -207 -203 -300 -16 -36
-48 -91 -72 -123 -24 -31 -44 -61 -44 -66 0 -5 -4 -11 -8 -13 -5 -1 -42 -48
-82 -102 -74 -99 -275 -361 -311 -404 -10 -12 -19 -25 -19 -28 0 -3 -12 -23
-27 -43 -53 -70 -133 -222 -133 -253 0 -36 21 -16 56 55 20 39 40 73 45 75 5
2 9 8 9 14 0 5 12 26 27 46 43 57 167 216 173 222 3 3 21 25 40 50 19 24 43
52 52 62 10 10 50 61 89 115 40 54 76 100 81 101 4 2 8 9 8 16 0 14 31 46 44
46 4 0 5 -24 2 -52 -3 -29 -8 -114 -11 -188 -6 -140 -25 -240 -69 -360 -35
-97 -50 -134 -56 -140 -3 -3 -12 -18 -20 -35 -27 -57 -83 -145 -91 -145 -5 0
-9 -7 -9 -15 0 -9 -7 -18 -15 -21 -8 -4 -15 -11 -15 -16 0 -11 -113 -122 -147
-145 -25 -17 -31 -43 -10 -43 30 0 162 128 233 227 43 60 124 198 128 218 1 6
5 16 9 22 12 20 75 207 81 239 2 16 5 29 6 29 6 0 17 126 25 306 8 188 61 340
174 499 54 77 227 253 292 297 43 30 209 151 236 174 22 17 194 101 199 96 7
-7 -135 -165 -219 -244 -42 -39 -77 -74 -77 -77 0 -3 9 -6 20 -6 11 0 20 4 20
8 0 4 13 15 28 24 28 17 144 132 412 411 167 172 201 191 340 193 137 2 170
-7 198 -56 12 -22 22 -43 21 -46 0 -4 3 -10 8 -13 5 -3 19 -22 30 -41 36 -58
124 -173 192 -249 84 -94 192 -201 202 -201 20 0 6 30 -32 71 -22 24 -66 76
-97 114 -32 39 -61 75 -67 82 -98 120 -237 374 -229 419 8 45 17 47 80 21 97
-41 165 -56 289 -63 127 -8 157 19 35 31 -108 10 -231 45 -308 86 -71 38 -99
42 -88 13 3 -7 1 -16 -5 -19 -5 -4 -7 -10 -4 -15 8 -12 -16 -17 -57 -12 -33 4
-38 8 -44 37 -8 46 0 55 52 55 41 0 43 1 32 19 -6 10 -23 26 -37 34 -22 13
-30 13 -52 1 -25 -12 -28 -12 -41 9 -30 46 -50 136 -30 138 4 0 16 2 27 4 11
2 22 0 25 -6 6 -9 78 20 144 59 42 24 126 109 164 165 18 27 32 49 32 51 0 2
8 21 17 42 19 45 17 39 27 87 5 20 11 37 15 37 4 0 6 13 3 30 -2 16 -8 27 -13
25 -4 -3 -24 -37 -43 -75 -65 -128 -138 -211 -231 -266 -78 -46 -120 -62 -240
-91 -11 -3 -54 -7 -95 -10 -71 -5 -165 10 -225 36 -110 48 -273 143 -477 281
l-56 38 -4 -57 c-2 -31 -3 -150 -2 -266 1 -202 2 -213 29 -285 25 -69 34 -100
52 -185 8 -37 8 -211 0 -245 -3 -14 -6 -28 -6 -32 -2 -17 -20 -6 -42 26 -13
19 -30 37 -39 41 -8 3 -27 12 -43 21 -15 8 -37 18 -50 21 -39 9 -180 9 -222 0
-22 -5 -51 -11 -63 -13 -74 -14 -152 -98 -154 -165 -1 -16 -4 -29 -8 -29 -14
0 -54 56 -81 115 -27 57 -30 74 -33 191 -2 71 -6 140 -10 154 -9 38 -30 134
-32 145 -1 6 -3 13 -4 18 -1 4 -4 12 -5 17 -1 6 -4 13 -5 18 -2 4 -4 12 -5 17
-3 23 -57 252 -65 280 -5 17 -11 41 -14 55 -2 14 -7 36 -10 50 -7 32 -14 69
-26 150 -14 96 -25 146 -53 240 -14 46 -23 88 -21 92 3 4 7 27 9 50 3 24 7 54
10 68 3 14 7 36 10 50 7 38 42 101 78 141 42 47 118 86 207 105 74 17 223 22
270 9 44 -11 55 -13 68 -14 27 -2 62 -49 62 -85 0 -40 15 -56 25 -26 3 11 10
20 15 20 10 0 80 -88 80 -100 0 -4 -11 -12 -25 -18 -27 -12 -42 -42 -51 -101
-18 -105 -9 -137 53 -210 38 -44 91 -72 163 -86 14 -3 34 -7 45 -10 48 -10 78
-16 118 -21 62 -8 307 -8 342 1 17 4 35 8 40 9 50 13 110 57 131 97 18 36 12
49 -13 27 -53 -47 -295 -58 -488 -22 -123 22 -170 40 -210 79 -68 66 -97 211
-45 224 37 9 228 21 440 28 214 7 236 7 296 0 35 -4 89 4 259 37 11 2 72 21
135 42 63 21 120 39 125 40 125 28 230 32 272 11 86 -46 215 -236 361 -532 27
-55 59 -116 71 -135 11 -19 24 -42 28 -50 4 -8 40 -76 81 -150 41 -74 92 -169
114 -210 22 -41 44 -80 50 -87 6 -7 7 -13 2 -13 -5 0 -4 -4 3 -8 16 -10 157
-295 177 -357 56 -181 58 -298 7 -431 -29 -74 -142 -265 -162 -272 -5 -2 -9
-8 -9 -13 0 -10 -32 -58 -60 -90 -8 -9 -26 -33 -40 -54 -14 -20 -29 -42 -35
-48 -5 -7 -26 -35 -45 -62 -19 -28 -42 -59 -52 -69 -10 -11 -18 -23 -18 -27 0
-4 -6 -14 -13 -21 -7 -7 -33 -42 -58 -78 -25 -36 -62 -88 -82 -117 -20 -28
-78 -116 -128 -195 -82 -128 -176 -264 -204 -294 -5 -6 -28 -33 -50 -60 -22
-26 -87 -97 -144 -156 -191 -198 -221 -233 -283 -320 -59 -83 -134 -238 -143
-295 -3 -16 -11 -57 -19 -93 -35 -153 -39 -376 -11 -620 4 -30 8 -71 10 -90 3
-19 7 -64 10 -100 3 -36 8 -81 10 -100 2 -19 6 -89 10 -155 3 -66 8 -136 10
-155 2 -19 7 -145 11 -280 9 -324 8 -320 26 -360 47 -103 80 -258 95 -435 6
-83 6 -273 -2 -284 -3 -6 -2 -11 4 -11 8 0 23 39 56 150 1 3 4 12 8 20 6 17
88 270 92 285 1 6 5 17 8 25 3 8 38 116 77 240 39 124 92 286 116 360 24 75
46 144 49 155 5 20 62 197 73 225 3 8 6 18 7 23 2 4 3 8 5 10 1 1 3 9 5 17 2
8 33 107 70 219 37 113 68 210 69 215 2 11 63 198 73 226 3 8 7 20 8 25 2 6
22 69 46 140 23 72 44 135 45 140 2 12 63 204 71 225 3 8 7 20 9 25 1 6 16 53
34 105 17 52 33 103 35 113 2 9 7 22 10 27 3 5 8 18 10 27 2 10 13 44 24 76
11 31 17 57 14 57 -3 0 0 6 6 13 6 8 13 24 15 38 3 13 5 25 7 27 1 1 2 5 3 10
2 6 93 289 184 567 14 44 27 85 28 90 1 6 27 84 57 175 30 91 85 260 121 375
37 116 72 226 79 245 6 19 12 37 12 40 1 3 4 12 8 20 3 8 17 53 32 100 15 47
29 92 32 100 3 8 7 20 8 25 2 10 176 549 215 665 31 95 92 285 95 295 1 6 5
17 8 25 3 8 40 123 82 255 42 132 92 287 112 345 19 58 36 113 38 122 2 9 9
26 15 37 6 12 9 21 6 21 -3 0 8 35 24 78 15 42 29 82 29 87 2 13 140 444 151
470 4 11 24 74 44 140 21 66 42 132 48 147 5 15 9 28 9 30 -1 2 15 50 35 108
20 58 37 112 39 120 2 8 24 78 49 155 25 77 46 142 46 146 0 3 -394 399 -875
880 -1862 1859 -2735 2729 -2737 2728 -2 -1 -814 -813 -1804 -1805z m3006
-2484 c82 -22 197 -91 305 -182 11 -9 40 -32 64 -52 25 -19 46 -43 47 -53 7
-53 16 -86 41 -163 16 -47 28 -103 27 -125 -3 -93 -4 -105 -13 -105 -5 0 -27
18 -50 39 -23 22 -63 50 -88 62 -39 19 -55 21 -124 16 -43 -4 -107 -14 -141
-23 -35 -9 -67 -17 -73 -19 -5 -1 -17 -5 -25 -8 -8 -3 -63 -22 -122 -41 -121
-40 -140 -45 -268 -60 -54 -7 -56 -6 -57 16 0 13 -4 57 -7 98 -5 73 -18 265
-18 285 -2 80 38 179 94 232 85 82 271 120 408 83z m-886 -144 c68 -12 213
-81 268 -126 l34 -29 3 -133 c1 -73 3 -172 5 -220 3 -81 2 -88 -16 -88 -11 0
-29 -5 -41 -12 -12 -6 -62 -13 -112 -14 -205 -7 -374 -14 -443 -18 l-72 -5
-24 37 c-13 20 -32 44 -42 53 -11 9 -38 36 -60 60 l-42 44 3 80 c5 187 74 281
249 340 42 14 95 28 119 31 23 4 43 7 45 9 4 3 92 -3 126 -9z m1392 -249 c12
-31 20 -57 18 -57 -2 0 -17 27 -33 60 -15 34 -24 59 -18 57 6 -2 21 -29 33
-60z m58 -163 c10 -47 77 -215 110 -275 38 -70 51 -136 33 -176 -6 -13 -13
-23 -16 -23 -3 0 -24 33 -45 73 -22 39 -53 92 -70 117 -31 45 -31 45 -31 182
0 121 8 161 19 102z m-1722 -947 c62 -60 481 -307 496 -292 3 2 12 0 22 -5 19
-10 63 -19 124 -26 47 -4 46 -3 80 -83 15 -35 38 -77 52 -94 34 -41 57 -88 47
-97 -4 -5 -36 -15 -70 -24 -98 -24 -142 -57 -281 -212 -81 -90 -82 -91 -132
-93 -64 -2 -105 16 -162 70 -63 61 -145 193 -153 249 -1 8 -14 48 -28 89 -15
40 -24 77 -22 82 3 4 2 10 -3 13 -4 2 -8 26 -7 53 1 26 -2 63 -6 81 -4 17 -4
32 0 32 3 0 6 55 5 123 0 152 4 167 38 134z m197 -952 c33 -10 26 -21 -36 -56
-63 -36 -136 -85 -195 -131 -21 -16 -38 -28 -38 -26 1 19 30 78 47 95 45 45
75 131 75 216 l0 32 63 -61 c34 -34 72 -65 84 -69z m-414 24 c17 -7 33 -12 36
-11 10 2 55 -42 67 -65 17 -31 15 -76 -5 -120 -25 -52 -51 -81 -103 -111 -37
-22 -58 -27 -125 -28 -44 -1 -84 1 -90 5 -10 6 -15 7 -34 10 -5 0 -28 20 -51
42 -29 29 -40 47 -37 61 4 13 -1 22 -16 27 -18 7 -22 16 -22 56 -1 42 3 53 31
79 18 17 54 38 80 46 61 21 228 26 269 9z"/>
<path d="M4141 16371 c0 -9 -3 -47 -6 -86 -4 -38 -8 -88 -10 -110 -1 -22 -3
-40 -4 -40 -1 0 -3 -31 -6 -70 -2 -38 -6 -95 -9 -125 -3 -30 -8 -84 -11 -120
-3 -36 -8 -85 -10 -110 -3 -25 -7 -76 -10 -115 -3 -38 -7 -95 -10 -125 -3 -30
-7 -84 -10 -120 -3 -36 -7 -90 -10 -120 -2 -30 -7 -86 -10 -125 -3 -38 -10
-113 -15 -165 -5 -52 -12 -131 -15 -175 -3 -44 -8 -98 -11 -120 -2 -22 -7 -74
-10 -115 -7 -97 -11 -150 -18 -230 -4 -36 -8 -94 -11 -130 -5 -62 -21 -245
-30 -340 -5 -50 -12 -141 -20 -240 -3 -36 -8 -92 -10 -125 -3 -33 -8 -85 -11
-115 -2 -30 -7 -84 -9 -120 -3 -36 -10 -114 -15 -175 -6 -60 -12 -135 -15
-165 -9 -121 -16 -186 -20 -207 -4 -19 24 -42 200 -165 342 -238 509 -356 522
-367 7 -6 14 -11 17 -11 4 0 141 -94 171 -118 6 -4 114 -79 240 -167 127 -87
232 -162 235 -165 3 -3 30 -22 60 -42 30 -21 66 -46 80 -55 14 -10 99 -69 190
-132 91 -63 208 -144 260 -181 52 -37 178 -125 280 -196 102 -70 187 -132 188
-136 2 -4 8 -8 13 -8 6 0 33 -17 62 -38 29 -21 97 -69 152 -107 146 -101 199
-138 310 -216 55 -38 141 -97 190 -131 50 -34 95 -67 101 -72 10 -9 183 -129
232 -161 8 -5 23 -15 31 -22 9 -7 133 -94 276 -193 898 -624 1114 -776 1138
-795 9 -8 21 -15 25 -15 4 0 19 -10 34 -23 15 -12 57 -42 93 -67 36 -25 115
-80 175 -122 61 -43 115 -78 120 -78 6 0 10 -4 10 -8 0 -4 15 -16 33 -27 17
-10 34 -21 37 -25 3 -3 90 -64 193 -136 104 -71 200 -139 215 -151 15 -13 32
-23 39 -23 6 0 13 -4 15 -8 2 -4 84 -64 183 -133 249 -173 285 -198 495 -345
204 -142 198 -138 302 -209 40 -27 75 -52 78 -56 3 -3 55 -39 115 -80 61 -41
112 -76 115 -79 3 -3 48 -35 100 -71 190 -131 637 -443 731 -510 53 -38 99
-69 102 -69 4 0 -8 30 -25 68 -16 37 -67 150 -113 252 -86 192 -118 263 -165
365 -37 79 -73 158 -100 220 -29 68 -43 98 -80 180 -18 39 -43 94 -56 123 -13
28 -36 78 -50 110 -15 31 -43 95 -64 142 -45 102 -69 155 -127 278 -23 52 -43
95 -43 98 0 2 -18 42 -40 89 -22 47 -40 87 -40 89 0 2 -17 39 -37 82 -20 43
-38 81 -38 84 -3 10 -47 107 -65 142 -10 20 -16 39 -13 42 4 3 1 6 -5 6 -7 0
-12 6 -12 13 0 8 -6 27 -14 43 -19 38 -63 135 -143 314 -75 166 -154 342 -188
415 -12 28 -84 187 -160 355 -75 168 -147 328 -160 355 -13 28 -33 73 -45 100
-24 53 -47 104 -115 255 -24 52 -87 192 -140 310 -54 118 -106 233 -116 254
-10 22 -19 46 -19 53 0 7 -5 13 -10 13 -6 0 -9 3 -8 8 2 10 -25 70 -337 757
-65 144 -175 388 -228 506 -36 79 -81 179 -101 222 -20 43 -36 80 -36 82 0 2
-16 38 -36 82 -137 298 -199 438 -196 446 1 4 -3 7 -8 7 -6 0 -10 4 -10 10 0
9 -57 139 -120 275 -29 62 -63 137 -98 215 -11 25 -54 121 -96 213 -42 93 -76
170 -76 172 0 1 -20 45 -44 96 -24 52 -60 132 -81 179 -21 47 -55 123 -76 168
-22 46 -39 85 -39 87 0 2 -15 36 -34 77 -18 40 -44 96 -56 123 -13 28 -49 107
-81 178 -32 70 -55 127 -51 127 4 0 2 4 -3 8 -11 8 -18 21 -66 132 -18 41 -34
77 -36 79 -3 4 -29 8 -128 16 -38 3 -90 8 -115 10 -25 2 -79 7 -120 11 -41 3
-93 8 -115 10 -22 1 -76 6 -120 9 -44 4 -98 8 -120 10 -22 2 -76 6 -120 9 -44
3 -100 8 -125 12 -25 3 -76 7 -115 9 -38 3 -90 7 -115 9 -50 6 -144 14 -360
32 -30 2 -80 7 -110 9 -102 9 -165 14 -240 19 -41 3 -91 7 -110 10 -19 3 -75
8 -125 11 -49 3 -103 8 -120 10 -16 3 -66 7 -110 11 -113 8 -193 14 -245 19
-25 2 -75 6 -112 9 -37 3 -95 8 -130 11 -61 5 -83 7 -238 20 -41 4 -88 8 -105
10 -16 2 -70 7 -120 11 -49 4 -106 8 -125 10 -55 5 -200 15 -252 18 -37 2 -47
-1 -47 -13z"/>
<path d="M20576 16383 c-1 -1 -42 -5 -91 -8 -50 -4 -108 -8 -130 -10 -22 -2
-71 -6 -110 -9 -77 -6 -165 -14 -235 -21 -25 -3 -76 -7 -115 -10 -38 -3 -97
-7 -130 -11 -33 -3 -82 -7 -110 -9 -27 -2 -75 -6 -105 -9 -30 -2 -93 -8 -140
-11 -47 -4 -105 -8 -130 -10 -25 -2 -72 -6 -105 -10 -33 -3 -87 -8 -120 -10
-33 -3 -85 -8 -115 -11 -30 -2 -84 -7 -120 -10 -80 -5 -156 -12 -235 -19 -33
-3 -87 -8 -120 -10 -101 -7 -260 -21 -350 -31 -22 -2 -78 -7 -125 -10 -47 -3
-101 -7 -120 -9 -102 -9 -203 -18 -370 -31 -41 -3 -91 -7 -110 -9 -19 -2 -71
-6 -115 -10 -44 -3 -96 -8 -115 -10 -30 -4 -190 -16 -229 -18 -11 0 -37 -49
-106 -202 -20 -45 -63 -139 -110 -245 -24 -52 -75 -165 -113 -250 -39 -85 -81
-180 -95 -210 -14 -30 -35 -77 -47 -105 -56 -125 -116 -257 -151 -333 -22 -45
-39 -84 -39 -86 0 -2 -20 -47 -45 -100 -25 -53 -45 -98 -45 -100 0 -4 -13 -32
-111 -243 -21 -46 -35 -83 -31 -83 4 0 2 -4 -4 -8 -5 -4 -21 -32 -33 -62 -22
-51 -42 -95 -109 -240 -14 -30 -26 -59 -28 -65 -1 -5 -23 -54 -48 -107 -25
-53 -46 -99 -46 -101 0 -3 -22 -53 -50 -111 -27 -58 -50 -109 -50 -111 0 -3
-22 -53 -50 -111 -27 -58 -50 -107 -50 -109 0 -2 -15 -36 -34 -77 -38 -83 -69
-151 -71 -158 0 -3 -18 -40 -38 -83 -20 -42 -37 -79 -37 -82 0 -2 -17 -41 -38
-87 -63 -136 -197 -433 -198 -438 0 -3 -18 -43 -40 -90 -22 -47 -58 -123 -79
-170 -21 -47 -55 -123 -76 -168 -22 -46 -39 -86 -39 -87 0 -2 -26 -62 -59
-132 -105 -230 -111 -244 -111 -247 0 -2 -20 -46 -44 -97 -24 -52 -72 -157
-106 -234 -34 -77 -67 -146 -72 -152 -6 -7 -8 -13 -5 -13 3 0 -16 -46 -42
-102 -56 -121 -87 -190 -108 -238 -8 -19 -19 -42 -24 -50 -5 -8 -12 -22 -15
-30 -20 -51 -119 -267 -127 -277 -5 -7 -7 -13 -4 -13 3 0 -7 -26 -22 -57 -32
-64 -41 -85 -134 -294 -36 -79 -76 -169 -90 -199 -13 -30 -35 -77 -47 -105
-40 -90 -62 -139 -92 -205 -17 -36 -47 -103 -68 -150 -61 -137 -179 -398 -226
-499 -24 -51 -44 -100 -44 -107 0 -8 -4 -14 -10 -14 -5 0 -10 -6 -10 -13 0
-12 -50 -124 -162 -367 -11 -25 -27 -61 -35 -80 -14 -31 -126 -279 -190 -420
-14 -30 -54 -120 -90 -200 -36 -80 -70 -151 -75 -157 -6 -7 -8 -13 -5 -13 3 0
-17 -48 -44 -106 -27 -59 -48 -108 -47 -110 2 -2 109 71 238 161 129 90 282
196 340 236 58 40 107 76 110 79 3 3 13 10 22 15 9 6 45 30 80 54 35 24 83 58
108 75 25 17 51 37 58 44 7 6 17 12 22 12 5 0 15 6 22 13 7 7 58 44 113 82 55
38 123 85 150 104 28 19 115 81 195 136 80 56 370 259 645 450 275 192 523
364 550 384 74 52 165 115 184 126 9 6 18 13 21 16 3 3 42 31 87 61 44 31 99
69 121 85 22 15 48 34 58 41 25 17 192 133 274 190 36 25 173 121 305 212 132
92 259 180 281 196 23 16 129 90 235 164 107 74 199 138 204 143 6 4 120 84
255 178 135 93 272 189 305 212 33 24 157 111 275 193 118 82 220 152 225 157
6 4 55 39 110 77 55 38 132 91 170 117 362 254 528 370 542 378 9 6 24 15 32
22 9 7 119 84 245 172 126 87 236 164 245 170 9 6 131 92 271 189 140 98 284
199 320 224 139 97 186 129 459 318 l282 195 -6 75 c-4 41 -8 89 -10 105 -2
17 -7 62 -10 100 -3 39 -8 93 -10 120 -6 56 -15 162 -20 245 -2 30 -7 82 -10
115 -6 65 -14 153 -19 225 -12 152 -17 208 -21 235 -2 17 -6 71 -10 120 -4 50
-8 100 -10 111 -2 12 -6 71 -10 130 -4 60 -9 118 -11 128 -2 11 -6 65 -9 120
-4 56 -8 112 -11 126 -2 14 -6 52 -9 85 -2 33 -7 92 -10 130 -3 39 -8 86 -10
105 -3 19 -7 76 -11 125 -3 50 -8 106 -9 125 -2 19 -6 69 -10 110 -3 41 -7 95
-9 120 -3 25 -7 79 -10 120 -4 41 -9 95 -11 120 -5 50 -12 138 -20 233 -5 62
-11 125 -20 227 -8 80 -18 210 -19 245 -2 28 -5 30 -40 30 -20 0 -38 -1 -40
-2z"/>
<path d="M11930 15109 c-8 -4 -49 -23 -90 -41 -41 -18 -76 -36 -78 -40 -2 -5
-8 -8 -14 -8 -18 0 -146 -90 -196 -138 -27 -26 -66 -74 -88 -107 -21 -33 -42
-61 -46 -63 -5 -2 -8 -9 -8 -15 0 -7 -20 -43 -45 -80 -25 -38 -45 -71 -45 -73
0 -2 -20 -35 -45 -74 -25 -39 -45 -73 -45 -76 0 -2 -5 -10 -11 -17 -36 -41
-181 -279 -195 -319 -28 -84 -24 -194 5 -140 6 11 11 29 11 39 1 51 63 158
164 284 34 42 172 251 259 391 77 123 113 171 171 225 72 67 193 153 293 209
51 28 62 45 32 49 -7 1 -21 -1 -29 -6z"/>
<path d="M3825 10979 c-99 -60 -191 -116 -205 -124 -14 -9 -59 -36 -100 -61
-41 -24 -82 -49 -90 -54 -74 -47 -340 -206 -431 -260 -14 -8 -73 -43 -130 -78
-57 -35 -111 -67 -119 -72 -8 -5 -52 -32 -97 -60 -46 -27 -87 -50 -93 -50 -5
0 -10 -3 -10 -7 0 -5 -10 -13 -23 -19 -12 -6 -116 -68 -232 -138 -115 -71
-230 -140 -255 -154 -25 -14 -56 -33 -70 -42 -14 -8 -34 -21 -45 -27 -11 -7
-57 -35 -103 -62 -46 -28 -87 -51 -92 -51 -5 0 -10 -3 -12 -7 -1 -5 -48 -35
-103 -68 -55 -33 -130 -78 -167 -101 l-68 -41 56 -89 c31 -49 64 -101 73 -116
9 -15 63 -103 121 -195 58 -92 107 -172 109 -178 2 -5 7 -12 10 -15 6 -5 96
-149 132 -210 8 -14 16 -27 19 -30 3 -3 19 -27 35 -54 51 -85 66 -110 210
-338 77 -122 143 -229 148 -238 4 -8 20 -34 35 -57 21 -33 263 -419 362 -577
8 -13 30 -50 49 -82 19 -33 38 -61 41 -64 4 -3 9 -12 13 -20 4 -8 41 -68 82
-133 41 -66 75 -123 75 -128 0 -5 6 -10 13 -10 35 -4 8174 -4 8184 -1 7 2 -11
16 -40 31 -28 15 -162 91 -296 169 -134 78 -245 142 -248 142 -2 0 -24 14 -48
30 -24 17 -46 30 -49 30 -3 0 -40 20 -82 45 -41 25 -78 45 -82 45 -3 0 -13 6
-21 14 -9 7 -45 29 -81 48 -67 37 -263 150 -290 168 -8 6 -21 13 -29 17 -8 3
-118 66 -244 140 -127 73 -234 133 -239 133 -4 0 -8 5 -8 12 0 6 -3 9 -6 5 -3
-3 -29 9 -57 27 -29 18 -72 44 -97 58 -25 14 -148 85 -275 158 -126 73 -246
142 -265 153 -19 10 -60 34 -90 52 -173 103 -211 125 -215 125 -2 0 -39 21
-82 46 -43 26 -94 56 -113 67 -19 11 -125 71 -235 135 -110 63 -375 216 -590
340 -214 123 -407 235 -427 248 -21 13 -39 24 -41 24 -3 0 -56 30 -118 67 -63
36 -143 82 -178 101 -36 19 -69 39 -75 44 -6 5 -63 38 -126 73 -63 36 -122 69
-130 74 -16 11 -175 103 -228 133 -18 10 -104 60 -190 110 -86 50 -182 105
-212 121 -30 16 -62 35 -70 41 -8 7 -26 18 -40 24 -14 7 -34 18 -45 25 -17 10
-177 103 -285 165 -19 11 -134 77 -255 147 -121 70 -245 141 -275 157 -30 17
-59 34 -65 38 -10 8 -107 64 -180 105 -22 12 -122 70 -223 129 -101 58 -187
106 -190 105 -4 0 -88 -50 -187 -110z"/>
<path d="M20605 10989 c-93 -55 -192 -113 -220 -128 -27 -16 -79 -45 -115 -66
-36 -21 -79 -45 -96 -55 -152 -87 -199 -116 -202 -122 -2 -5 -7 -8 -11 -8 -7
0 -159 -83 -201 -110 -8 -6 -114 -67 -235 -136 -121 -69 -249 -143 -285 -164
-262 -154 -571 -330 -579 -330 -5 0 -11 -3 -13 -8 -1 -4 -82 -52 -178 -107
-96 -55 -176 -103 -178 -107 -2 -4 -8 -8 -13 -8 -6 0 -110 -58 -232 -129 -122
-71 -238 -138 -258 -149 -74 -41 -304 -175 -314 -182 -5 -4 -35 -21 -65 -37
-133 -73 -225 -128 -228 -135 -2 -4 -7 -8 -12 -8 -4 0 -79 -41 -166 -91 -88
-50 -172 -99 -189 -109 -16 -9 -133 -77 -260 -150 -126 -73 -245 -141 -262
-151 -18 -11 -48 -27 -65 -38 -32 -18 -389 -224 -455 -262 -18 -11 -48 -28
-67 -38 -19 -11 -53 -31 -75 -45 -22 -15 -42 -26 -45 -26 -2 0 -55 -30 -117
-66 -257 -150 -299 -174 -309 -174 -5 0 -10 -4 -10 -10 0 -5 -4 -10 -9 -10 -5
0 -54 -26 -108 -58 -54 -32 -105 -61 -113 -65 -8 -4 -24 -13 -35 -20 -73 -45
-147 -87 -151 -87 -3 0 -18 -8 -32 -19 -15 -10 -47 -29 -72 -43 -25 -14 -106
-60 -180 -103 -127 -74 -263 -152 -600 -346 -80 -46 -158 -90 -173 -98 -15 -8
-27 -17 -27 -20 0 -3 1843 -6 4095 -6 3886 0 4096 1 4101 17 3 10 11 24 17 30
7 7 30 42 51 78 90 149 202 325 209 328 4 2 7 8 7 12 0 7 74 131 120 200 43
65 90 142 90 146 0 3 13 24 29 47 16 23 109 170 206 327 97 157 186 299 196
315 11 17 98 156 194 310 95 154 177 285 182 291 13 17 33 48 40 64 4 8 46 76
93 150 47 74 98 156 112 181 l27 46 -37 20 c-20 11 -74 43 -120 72 -46 28 -88
51 -93 51 -5 0 -9 5 -9 10 0 6 -4 10 -9 10 -4 0 -68 37 -142 82 -74 44 -147
89 -164 98 -16 10 -158 95 -315 190 -157 95 -294 178 -305 184 -11 6 -105 63
-210 126 -104 63 -198 119 -207 125 -10 5 -241 145 -514 310 -273 165 -502
301 -508 302 -6 1 -87 -43 -181 -98z"/>
<path d="M12416 11015 c-23 -21 -49 -88 -61 -156 -6 -31 -12 -38 -38 -43 -31
-6 -49 3 -53 28 -3 21 -51 100 -78 129 -22 24 -27 25 -63 15 -21 -5 -43 -14
-50 -20 -20 -16 -34 -136 -21 -176 6 -16 2 -28 -12 -42 -26 -26 -54 -25 -72 3
-19 28 -76 84 -106 104 -20 14 -26 14 -61 -2 -21 -9 -43 -27 -48 -39 -13 -27
-7 -92 12 -146 20 -56 19 -77 -4 -90 -16 -8 -25 -5 -48 14 -33 28 -98 62 -133
71 -19 4 -33 -1 -56 -22 -53 -48 -50 -88 18 -190 32 -48 34 -60 12 -84 -15
-17 -18 -17 -59 1 -24 10 -56 21 -72 24 -15 2 -38 7 -49 10 -32 7 -60 -18 -79
-68 -17 -44 -17 -45 9 -79 14 -19 46 -52 71 -75 38 -35 44 -44 36 -64 -8 -22
-13 -23 -84 -20 -107 5 -136 -3 -153 -44 -31 -73 -14 -102 94 -159 49 -26 57
-35 60 -63 3 -28 0 -32 -21 -32 -44 0 -152 -40 -169 -63 -10 -13 -18 -40 -18
-64 0 -40 2 -44 42 -63 40 -19 74 -28 131 -34 34 -4 34 -4 40 -43 5 -31 3 -33
-51 -58 -63 -29 -97 -57 -117 -95 -11 -21 -10 -31 2 -62 19 -48 46 -54 198
-45 22 2 33 -4 44 -25 15 -26 14 -27 -42 -82 -31 -31 -64 -70 -72 -87 -15 -28
-15 -33 3 -67 18 -35 22 -37 69 -37 27 1 75 9 107 20 l56 19 27 -26 26 -27
-37 -54 c-20 -29 -43 -74 -51 -99 -13 -45 -13 -46 17 -77 17 -17 35 -31 42
-31 19 1 94 37 139 69 l43 29 32 -20 c18 -11 32 -21 32 -22 0 -1 -9 -28 -21
-60 -11 -33 -23 -80 -26 -106 -5 -45 -4 -48 31 -69 24 -15 45 -21 60 -17 23 6
126 100 126 116 0 14 29 19 58 9 l28 -9 -1 -100 c0 -114 7 -128 72 -137 39 -5
42 -3 70 38 17 24 40 63 52 87 20 39 24 42 61 42 22 0 41 -3 41 -7 1 -5 3 -17
4 -28 7 -57 15 -86 33 -129 20 -45 22 -46 65 -46 29 0 49 6 60 18 19 21 57
132 57 167 0 14 6 25 13 25 6 0 22 3 34 6 19 5 26 -3 53 -59 54 -109 91 -135
155 -105 33 15 49 73 42 161 -4 66 -4 68 24 82 27 15 28 14 78 -43 27 -31 66
-65 85 -76 34 -18 35 -18 70 4 20 12 38 31 41 43 5 25 1 85 -8 107 -23 57 -26
94 -10 112 9 10 19 18 23 18 4 0 37 -20 72 -44 87 -58 111 -62 154 -24 52 46
43 95 -39 219 -17 25 -17 27 0 48 l18 23 50 -20 c61 -24 127 -36 154 -27 11 3
29 26 41 51 21 43 21 45 4 72 -10 14 -42 50 -72 79 -49 46 -54 55 -45 75 9 21
16 22 105 23 108 0 122 7 140 67 10 34 9 42 -9 66 -11 15 -50 43 -86 62 -63
34 -82 56 -70 86 3 8 14 14 26 14 38 0 142 33 161 50 26 25 31 102 8 123 -22
20 -99 47 -137 47 -40 0 -53 10 -59 45 -5 28 -2 32 53 57 32 15 73 41 91 58
30 28 32 34 26 73 -10 62 -22 69 -112 69 -44 0 -83 -1 -89 -2 -23 -5 -33 2
-45 30 -12 28 -10 32 14 51 43 34 85 81 101 115 14 30 11 74 -6 74 -5 0 -9 6
-9 14 0 28 -52 28 -162 0 -66 -17 -68 -17 -83 2 -20 27 -19 41 9 77 29 38 65
115 66 139 0 17 -31 52 -61 68 -11 6 -36 -1 -80 -21 -35 -17 -66 -33 -69 -37
-3 -4 -12 -13 -21 -20 -34 -26 -97 29 -70 61 10 13 15 33 30 117 4 25 9 48 12
52 2 4 -12 19 -32 33 -57 38 -81 28 -170 -69 l-47 -51 -35 17 -35 17 5 59 c9
92 -3 147 -33 161 -66 30 -108 -1 -160 -114 -26 -56 -30 -58 -73 -46 -20 5
-26 17 -37 69 -21 101 -42 136 -87 143 -30 5 -42 2 -61 -16z m154 -340 c98 -9
225 -47 322 -95 339 -168 554 -503 561 -871 2 -159 -18 -268 -76 -406 -63
-146 -136 -243 -283 -373 -124 -109 -312 -190 -499 -216 -43 -6 -212 -6 -260
0 -238 29 -479 160 -627 340 -83 102 -94 118 -143 225 -70 148 -96 267 -94
426 1 135 10 192 45 300 92 280 298 497 575 608 94 38 180 56 289 63 52 4 97
8 99 10 2 2 7 2 10 0 3 -2 40 -7 81 -11z"/>
<path d="M12418 10575 c-2 -2 -32 -5 -68 -8 -78 -7 -86 -9 -170 -37 -158 -53
-309 -161 -422 -301 -52 -65 -128 -226 -154 -326 -31 -120 -36 -296 -11 -409
109 -501 620 -807 1109 -664 185 53 361 178 474 337 76 104 144 270 160 388
13 95 9 236 -10 325 -18 88 -21 97 -54 168 -14 32 -26 59 -26 62 -4 20 -92
137 -146 194 -97 102 -253 200 -365 231 -16 4 -34 9 -40 11 -30 9 -64 16 -95
20 -44 5 -179 12 -182 9z m-73 -269 c-3 -50 -8 -107 -10 -126 -3 -19 -7 -78
-10 -130 -4 -52 -11 -98 -17 -101 -10 -6 -110 35 -208 86 -25 13 -84 42 -132
65 -49 23 -88 47 -88 53 0 16 97 104 155 141 113 72 277 133 303 113 11 -8 12
-32 7 -101z m343 81 c40 -14 106 -44 147 -67 70 -41 205 -152 205 -170 0 -5
-28 -22 -62 -38 -35 -16 -124 -59 -199 -96 -74 -36 -142 -66 -151 -66 -21 0
-30 24 -34 95 -1 33 -5 92 -8 130 -20 246 -20 243 6 240 13 -2 56 -14 96 -28z
m506 -561 c27 -132 9 -364 -33 -408 -7 -8 -383 241 -388 257 -1 6 1 15 5 21 9
13 341 239 362 246 21 7 35 -23 54 -116z m-1278 18 c76 -52 156 -107 176 -121
54 -36 63 -50 46 -65 -11 -11 -133 -96 -212 -148 -13 -8 -47 -31 -77 -51 -72
-47 -87 -52 -98 -31 -8 16 -22 76 -26 115 -2 9 -4 18 -5 20 -8 9 -13 156 -6
207 9 65 26 151 33 163 10 16 36 3 169 -89z m460 28 c20 -13 23 -40 7 -54 -33
-27 -73 -102 -73 -137 0 -49 28 -101 69 -128 93 -62 222 12 227 129 2 53 -21
106 -55 131 -27 19 -34 37 -21 52 19 23 46 18 84 -15 160 -141 60 -394 -155
-392 -129 0 -230 104 -231 237 -1 101 93 215 148 177z m-52 -505 c3 -18 8 -77
12 -132 3 -55 7 -107 9 -116 2 -8 5 -51 7 -95 3 -79 3 -79 -22 -77 -51 4 -70
7 -70 13 0 3 -8 6 -17 7 -20 2 -111 42 -158 70 -40 24 -154 115 -184 147 l-24
25 194 95 c107 51 201 96 209 98 26 8 39 -3 44 -35z m377 12 c35 -17 123 -60
195 -94 73 -35 135 -68 138 -74 7 -11 -44 -65 -112 -119 -83 -65 -228 -130
-311 -139 l-43 -5 6 78 c15 210 18 253 20 305 4 91 11 94 107 48z"/>
<path d="M12226 7357 c3 -10 9 -15 12 -12 3 3 0 11 -7 18 -10 9 -11 8 -5 -6z"/>
<path d="M12244 7313 c3 -10 12 -44 21 -75 9 -32 21 -58 27 -58 7 0 7 4 0 13
-6 6 -10 15 -10 20 -1 17 -33 117 -38 117 -3 0 -3 -8 0 -17z"/>
<path d="M12314 7068 c17 -57 32 -95 34 -86 4 22 -47 188 -58 188 -4 0 6 -46
24 -102z"/>
<path d="M3305 6422 c-2 -2 -24 -8 -62 -16 -32 -6 -102 -63 -131 -104 -42 -63
-62 -124 -66 -201 -5 -121 32 -234 98 -295 75 -69 196 -92 313 -61 55 15 74
27 118 70 74 75 100 148 99 280 -1 86 -5 108 -27 155 -43 91 -111 146 -202
165 -33 6 -135 12 -140 7z m114 -87 c155 -27 220 -256 121 -430 -39 -70 -91
-95 -187 -91 -69 2 -125 23 -151 55 -31 38 -62 122 -66 177 -8 130 44 240 129
275 32 13 106 27 116 23 3 -2 20 -6 38 -9z"/>
<path d="M6331 6414 c-36 -7 -79 -25 -100 -40 -41 -31 -71 -60 -71 -70 0 -3
-8 -18 -18 -32 -29 -42 -44 -110 -44 -194 1 -205 99 -332 268 -346 130 -10
250 63 288 174 24 70 21 84 -13 84 -47 0 -60 -10 -67 -48 -9 -46 -78 -116
-123 -125 -164 -33 -265 71 -260 266 5 184 85 268 244 254 33 -3 61 -10 63
-16 2 -6 8 -11 14 -11 15 0 43 -35 58 -70 11 -27 17 -30 56 -30 43 0 44 1 38
28 -20 86 -104 163 -192 177 -20 3 -46 8 -57 10 -11 1 -49 -3 -84 -11z"/>
<path d="M7848 6425 c-1 -1 -27 -6 -57 -9 -154 -18 -255 -170 -244 -366 5 -86
36 -178 77 -226 114 -134 358 -120 448 25 25 40 48 97 48 122 0 24 -79 25 -87
1 -34 -100 -83 -149 -159 -158 -146 -18 -240 86 -236 261 2 87 6 105 39 172
16 34 76 81 110 87 26 5 95 9 108 5 6 -1 15 -3 20 -3 30 -4 78 -46 96 -83 20
-41 23 -43 66 -43 41 0 44 2 38 23 -32 103 -106 171 -200 183 -22 3 -45 7 -52
9 -6 2 -13 2 -15 0z"/>
<path d="M10440 6414 c-37 -8 -82 -26 -105 -42 -37 -26 -110 -120 -113 -146 0
-6 -6 -30 -11 -53 -26 -103 -8 -231 44 -313 69 -108 209 -154 352 -115 55 15
75 27 118 69 79 77 108 157 104 284 -5 181 -93 295 -246 318 -26 3 -55 8 -63
9 -8 1 -44 -4 -80 -11z m133 -77 c43 -6 111 -59 136 -108 16 -30 25 -68 28
-120 10 -139 -52 -263 -144 -288 -128 -36 -248 20 -285 134 -19 57 -17 218 2
243 2 1 3 5 4 10 11 50 86 116 143 126 7 1 15 4 18 7 4 5 34 4 98 -4z"/>
<path d="M11977 6423 c-2 -1 -14 -5 -28 -7 -13 -2 -24 -5 -24 -6 0 -1 -8 -3
-18 -5 -33 -6 -97 -55 -127 -97 -80 -110 -87 -321 -15 -445 55 -92 154 -140
272 -130 128 12 225 98 247 220 l7 38 -42 -3 c-38 -3 -43 -6 -58 -44 -38 -96
-105 -141 -198 -131 -143 15 -208 137 -181 342 6 48 38 113 69 139 100 84 267
54 308 -56 9 -25 16 -28 55 -28 44 0 45 0 37 28 -27 93 -100 160 -191 177 -43
7 -109 12 -113 8z"/>
<path d="M12621 6418 c-117 -17 -208 -108 -246 -245 -11 -39 -8 -166 5 -213
11 -44 68 -150 80 -150 4 0 15 -8 26 -17 75 -66 223 -81 330 -34 123 55 185
176 180 350 -6 221 -152 341 -375 309z m193 -116 c22 -15 50 -49 65 -77 22
-43 26 -62 26 -141 0 -84 -3 -96 -35 -159 -40 -79 -80 -106 -165 -113 -156
-13 -249 91 -245 273 3 141 72 236 181 251 24 4 45 7 47 9 10 9 93 -20 126
-43z"/>
<path d="M16002 6418 c-84 -13 -139 -46 -190 -116 -103 -144 -85 -390 37 -501
53 -48 109 -66 206 -66 107 1 168 23 227 86 68 71 97 160 93 285 -3 102 -31
178 -87 233 -27 27 -80 59 -108 66 -3 1 -20 5 -39 9 -49 12 -79 13 -139 4z
m138 -88 c87 -21 153 -139 145 -260 -5 -75 -18 -121 -54 -177 -44 -72 -138
-99 -247 -72 -24 6 -44 15 -44 20 0 5 -6 9 -12 9 -24 0 -96 129 -83 150 3 5 1
11 -4 14 -5 3 -7 38 -5 78 9 185 130 280 304 238z"/>
<path d="M20580 6419 c-8 -5 -23 -9 -33 -9 -30 0 -88 -46 -114 -89 -38 -64
-32 -163 12 -207 29 -29 155 -70 265 -86 62 -9 99 -46 100 -99 0 -76 -81 -126
-190 -116 -80 7 -126 40 -142 103 -12 43 -13 44 -54 44 -42 0 -42 0 -38 -32 8
-61 44 -123 86 -151 136 -88 373 -41 416 83 15 42 8 131 -13 163 -30 46 -69
66 -192 98 -146 38 -169 47 -182 77 -15 31 -14 48 4 82 19 36 57 57 110 61 95
5 158 -31 171 -97 6 -33 8 -34 51 -34 l46 0 -7 41 c-10 61 -31 94 -81 129 -25
17 -45 28 -45 24 0 -3 -6 -2 -12 3 -7 5 -40 10 -73 12 -33 2 -62 5 -65 6 -3 2
-12 0 -20 -6z"/>
<path d="M22060 6420 c-102 -10 -158 -43 -228 -135 -8 -11 -23 -43 -28 -60
-26 -105 -25 -220 3 -305 24 -74 99 -150 171 -174 60 -20 137 -19 201 2 89 30
163 119 173 207 3 28 1 30 -37 33 -40 3 -41 2 -53 -41 -41 -139 -212 -184
-315 -83 -53 52 -74 115 -72 216 3 95 20 152 59 194 46 50 77 63 155 67 70 4
136 -34 165 -95 15 -32 21 -36 56 -36 35 0 40 3 40 23 0 24 -30 79 -64 115
-24 28 -82 59 -120 66 -14 2 -29 6 -33 8 -5 2 -37 1 -73 -2z"/>
<path d="M2445 6400 c-2 -3 -3 -150 -3 -328 l0 -322 46 0 47 0 -2 137 -1 138
116 -1 c64 -1 129 -5 144 -9 43 -11 58 -45 63 -140 6 -130 6 -129 85 -125 42
2 50 8 30 23 -19 15 -22 27 -26 112 -5 103 -11 127 -43 157 l-29 26 39 42 c40
42 44 57 40 145 -3 68 -47 117 -131 142 -22 7 -371 10 -375 3z m346 -79 c68
-5 97 -130 43 -184 -31 -31 -53 -35 -189 -33 l-110 1 -1 110 -1 111 121 -2
c66 -1 128 -2 137 -3z"/>
<path d="M3729 6398 c-1 -4 -1 -19 -1 -33 0 -14 0 -29 1 -33 1 -4 48 -7 106
-7 65 1 106 -3 108 -9 2 -6 3 -136 2 -288 l0 -276 42 -4 c35 -3 42 0 45 17 2
11 3 142 2 291 l-1 270 109 0 108 -1 0 40 0 41 -260 0 c-143 0 -260 -4 -261
-8z"/>
<path d="M4445 6375 c-7 -16 -16 -39 -20 -50 -4 -11 -9 -24 -10 -30 -3 -12
-181 -489 -195 -522 -9 -22 -8 -23 40 -23 31 0 50 4 50 11 0 7 15 52 33 100
l32 89 127 0 c122 0 127 -1 134 -22 5 -13 8 -25 9 -28 0 -3 13 -39 28 -80 l27
-75 50 3 c36 3 48 7 42 15 -5 7 -21 48 -36 92 -15 44 -30 87 -33 95 -4 8 -7
17 -8 20 -1 3 -4 12 -8 20 -22 59 -59 162 -61 173 -2 6 -7 23 -13 37 -5 14
-23 61 -38 105 -16 44 -32 85 -37 91 -5 7 -29 11 -55 10 -41 -1 -47 -4 -58
-31z m104 -206 c1 -9 4 -19 9 -23 4 -4 7 -11 8 -14 0 -4 3 -14 6 -22 4 -8 11
-30 17 -47 l10 -33 -95 0 c-64 0 -94 4 -94 12 0 10 58 180 82 238 10 24 12 22
34 -35 13 -33 23 -67 23 -76z"/>
<path d="M4889 6406 c-1 -1 -2 -148 -3 -328 l-1 -328 46 0 46 0 -1 135 c-1
129 0 135 19 136 46 2 192 1 223 -2 54 -5 72 -35 78 -125 2 -44 7 -94 10 -111
5 -33 5 -33 65 -33 l60 0 -20 28 c-15 20 -21 50 -25 125 -6 103 -21 140 -61
153 -18 6 -18 8 7 28 57 48 79 119 58 197 -17 62 -56 99 -123 116 -16 4 -371
12 -378 9z m338 -85 c63 -4 102 -96 68 -161 -24 -47 -58 -56 -197 -56 l-122 1
-1 105 c0 58 0 107 1 110 2 5 185 6 251 1z"/>
<path d="M5722 6401 c-5 -3 -17 -26 -25 -51 -9 -25 -52 -142 -97 -260 -44
-118 -83 -223 -85 -233 -2 -10 -11 -32 -20 -49 -29 -59 -18 -68 66 -59 6 1 10
10 23 51 1 3 12 38 26 78 l24 73 129 -3 129 -3 32 -95 c32 -92 33 -95 67 -100
49 -8 70 -1 60 19 -5 9 -25 63 -45 121 -33 92 -54 152 -82 225 -4 11 -8 25
-10 30 -1 6 -16 48 -34 95 -18 47 -33 90 -35 95 -16 62 -25 71 -70 71 -24 1
-48 -2 -53 -5z m94 -238 c24 -70 44 -129 44 -130 0 -2 -43 -3 -95 -3 -52 0
-95 3 -95 8 0 15 93 262 98 258 2 -3 24 -63 48 -133z"/>
<path d="M6732 6366 l3 -40 100 -2 c55 -1 103 -2 107 -3 3 0 6 -127 6 -282 0
-154 2 -282 4 -284 1 -2 21 -5 43 -7 l40 -3 0 78 c0 42 4 77 8 77 5 0 5 5 1
12 -12 19 -11 399 1 406 6 4 55 7 110 7 l100 0 0 40 0 40 -263 0 -263 1 3 -40z"/>
<path d="M8229 6406 c-1 0 -3 -148 -4 -328 -1 -325 -1 -328 19 -329 73 -2 390
2 395 5 3 2 6 19 5 38 l-1 33 -134 2 c-74 1 -148 3 -165 3 l-31 0 0 287 1 287
-42 2 c-23 1 -43 1 -43 0z"/>
<path d="M8742 6396 c-10 -13 -8 -407 2 -462 14 -73 46 -131 86 -158 108 -71
275 -57 355 31 53 57 60 102 60 363 l0 235 -42 1 c-40 1 -43 -1 -43 -25 0 -14
-1 -126 -3 -248 l-2 -221 -31 -39 c-74 -92 -219 -83 -273 17 -24 43 -25 49
-25 277 -1 128 -3 234 -6 234 -29 7 -72 4 -78 -5z"/>
<path d="M9382 6395 c-3 -5 -7 -153 -7 -328 l0 -317 85 -1 c186 -1 226 0 260
6 115 20 187 148 144 255 -17 40 -60 80 -89 80 -17 0 -15 4 12 28 39 33 62 84
59 133 -5 65 -57 131 -116 145 -46 11 -341 11 -348 -1z m330 -85 c41 -20 57
-84 32 -131 -19 -37 -64 -49 -186 -49 l-97 0 0 83 c1 123 -8 115 117 112 63
-1 118 -7 134 -15z m10 -274 c47 -20 61 -40 64 -92 2 -39 -2 -49 -30 -78 -19
-18 -40 -33 -47 -34 -19 -2 -155 -3 -206 -3 l-42 1 1 110 1 110 112 0 c75 0
124 -5 147 -14z"/>
<path d="M10950 6078 l0 -328 35 0 c19 0 38 0 43 0 7 0 12 27 12 68 0 12 0 30
0 40 1 94 0 144 -4 150 -16 26 16 32 166 33 l156 0 -1 40 -1 39 -157 0 -157 0
3 25 c1 14 -1 28 -5 30 -4 3 -5 20 -1 37 4 18 4 44 1 58 -15 54 -7 56 184 56
97 -1 177 2 177 6 1 5 1 17 1 28 0 11 0 26 -1 33 -1 10 -51 13 -226 13 l-225
0 0 -328z"/>
<path d="M13354 6398 c-5 -7 -6 -156 -4 -529 l0 -117 29 -4 c57 -8 56 -11 55
256 -1 135 3 246 7 246 5 0 9 -2 9 -4 0 -2 25 -77 56 -167 31 -90 57 -168 58
-174 1 -5 4 -14 7 -20 3 -5 14 -38 25 -72 l19 -63 46 0 46 0 49 148 c27 81 49
149 50 152 0 3 3 12 7 20 3 8 22 62 41 120 l35 105 0 -240 c-1 -343 -6 -305
41 -305 35 0 40 3 41 23 0 30 0 598 0 617 -1 12 -14 16 -62 15 l-62 0 -84
-250 c-83 -245 -91 -270 -92 -289 -2 -28 -25 29 -91 229 -39 121 -75 229 -80
240 -4 11 -12 31 -17 45 -9 22 -16 25 -67 26 -31 0 -59 -3 -62 -8z m91 -128
c3 -5 1 -10 -4 -10 -6 0 -11 5 -11 10 0 6 2 10 4 10 3 0 8 -4 11 -10z"/>
<path d="M14109 6406 c-1 -1 -2 -148 -3 -328 l-2 -328 61 -1 c280 -2 311 2
371 47 55 41 82 128 62 200 -9 34 -63 94 -85 94 -17 0 -17 17 0 27 73 44 79
183 11 245 -38 34 -78 41 -246 43 -93 1 -169 1 -169 1z m304 -85 c31 -2 73
-52 72 -86 -3 -84 -41 -105 -190 -105 l-105 0 0 98 0 98 103 -2 c56 -1 110 -2
120 -3z m14 -277 c74 -15 111 -90 78 -154 -28 -54 -69 -63 -257 -61 l-58 1 0
110 0 110 104 0 c57 0 117 -3 133 -6z"/>
<path d="M14894 6396 c-2 -6 -45 -121 -95 -256 -126 -341 -141 -381 -137 -385
4 -4 39 -8 63 -6 17 1 27 19 55 101 l35 100 129 -2 129 -3 15 -45 c46 -138 50
-145 73 -150 13 -3 36 -4 50 -2 27 4 27 4 12 40 -15 37 -90 246 -119 332 -8
25 -19 54 -24 65 -5 11 -14 38 -21 60 -7 22 -16 45 -20 50 -3 6 -12 31 -20 58
-7 26 -16 48 -19 48 -30 7 -103 3 -106 -5z m88 -189 c16 -45 32 -93 34 -106 3
-13 9 -32 14 -42 6 -10 10 -20 10 -23 0 -3 -43 -6 -95 -6 -52 0 -95 4 -95 9 0
5 14 47 31 93 17 45 38 102 46 126 9 23 18 40 21 37 3 -3 19 -42 34 -88z"/>
<path d="M15190 6368 c0 -43 -10 -40 125 -42 l90 -1 2 -205 c2 -113 3 -242 3
-286 l0 -82 29 -4 c60 -9 58 -18 59 272 0 146 1 274 1 285 1 19 8 20 109 21
l107 0 2 40 3 40 -265 0 -265 0 0 -38z"/>
<path d="M16504 6401 c-2 -2 -4 -149 -4 -327 l0 -322 23 -4 c12 -2 33 -1 46 2
24 6 24 6 23 138 0 72 2 132 6 133 39 4 215 1 244 -4 53 -11 67 -40 72 -144 6
-122 7 -123 73 -123 l55 0 -17 26 c-10 16 -19 53 -21 93 -7 128 -11 144 -44
174 l-31 28 25 20 c63 49 80 166 35 230 -31 45 -46 56 -94 71 -38 11 -380 19
-391 9z m354 -84 c25 -6 61 -42 63 -61 0 -6 2 -21 3 -34 2 -13 -1 -25 -5 -28
-5 -2 -6 -11 -3 -19 7 -18 -39 -58 -76 -66 -16 -4 -78 -6 -137 -5 l-108 1 -2
100 c-1 55 -1 105 1 110 4 11 222 12 264 2z"/>
<path d="M17149 6395 c-1 -5 -2 -153 -3 -327 l-1 -318 38 -1 c47 0 130 0 307
0 l140 1 -4 33 c-2 17 -4 36 -5 40 0 4 -63 8 -138 7 -76 -1 -163 -1 -194 0
l-57 0 0 100 c-1 55 3 102 8 105 6 3 86 6 180 6 l170 -1 0 40 0 40 -180 0
-180 0 3 103 2 102 190 0 190 0 0 40 0 40 -232 0 c-149 0 -233 -3 -234 -10z"/>
<path d="M17993 6401 c-5 -3 -8 -151 -8 -329 l0 -322 43 0 42 0 1 133 c0 72 0
192 -1 266 0 74 1 133 4 130 5 -5 45 -117 51 -144 3 -11 9 -29 14 -40 5 -11
33 -93 63 -182 l53 -163 45 0 45 0 89 265 c48 146 89 265 91 265 2 0 2 -110 1
-244 0 -135 1 -255 4 -267 4 -16 13 -23 33 -23 15 -1 32 1 38 5 8 5 14 373 9
629 0 25 -2 26 -61 25 l-62 0 -14 -40 c-8 -22 -16 -47 -18 -55 -15 -55 -151
-450 -155 -450 -4 0 -67 184 -76 220 0 3 -4 13 -7 23 -16 42 -20 53 -24 67 -2
8 -20 65 -41 125 l-37 110 -57 1 c-32 0 -61 -2 -65 -5z"/>
<path d="M18934 6392 c-8 -9 -14 -19 -14 -22 1 -3 -13 -39 -30 -80 -17 -41
-31 -77 -32 -80 -1 -8 -3 -13 -79 -215 -97 -259 -93 -242 -61 -247 51 -7 60 1
87 75 15 40 31 84 37 100 l10 27 127 0 126 0 25 -72 c14 -40 25 -75 25 -78 5
-40 18 -50 65 -50 l49 0 -28 83 c-37 106 -167 469 -190 527 -16 42 -19 45 -60
47 -29 1 -47 -3 -57 -15z m95 -219 c22 -67 41 -127 41 -132 0 -7 -34 -11 -95
-11 l-95 0 45 126 c44 124 54 148 60 142 1 -2 21 -58 44 -125z"/>
<path d="M19586 6401 c-2 -3 -4 -114 -4 -246 0 -132 -3 -256 -7 -275 -8 -49
-34 -71 -88 -76 -67 -6 -98 23 -105 99 l-4 57 -39 0 c-44 0 -46 -5 -38 -90 8
-84 79 -140 174 -139 97 1 164 45 183 121 7 26 10 140 9 298 l-2 255 -38 1
c-21 0 -39 -2 -41 -5z"/>
<path d="M19815 6401 c-3 -2 -5 -150 -5 -328 l0 -323 65 -1 c36 0 94 0 130 0
36 0 114 0 174 0 l109 1 4 30 c3 16 2 34 -2 40 -4 7 -61 10 -156 9 -82 0 -169
0 -194 0 l-45 1 1 100 c0 55 3 103 6 105 3 3 84 6 180 6 l174 -1 1 40 1 40
-147 1 c-80 1 -161 0 -178 -1 -26 -1 -33 3 -34 17 -1 38 -1 149 0 169 1 19 6
20 187 19 102 0 189 2 193 5 8 6 9 69 1 71 -16 4 -461 4 -465 0z"/>
<path d="M20963 6397 c-10 -17 -10 -58 1 -64 6 -4 56 -8 111 -8 l100 0 0 -288
0 -287 45 0 46 0 -1 281 c0 241 2 282 15 289 8 4 54 7 103 6 48 -1 91 0 96 4
7 4 8 38 2 71 -2 9 -512 6 -518 -4z"/>
<path d="M13122 6073 l1 -323 43 0 44 0 0 323 0 323 -44 0 -44 0 0 -323z"/>
<path d="M21586 6391 c-2 -3 -4 -149 -4 -323 l1 -318 43 0 44 0 -2 323 -3 322
-38 1 c-21 0 -39 -2 -41 -5z"/>
<path d="M12660 5161 c-131 -27 -228 -124 -260 -263 -15 -69 -12 -922 4 -983
29 -111 82 -181 169 -223 63 -31 95 -37 198 -36 69 1 97 6 140 26 100 46 162
119 187 221 8 31 12 194 13 504 1 455 -1 504 -33 573 -21 44 -79 110 -119 136
-73 46 -199 65 -299 45z m115 -201 c0 -1 11 -4 24 -6 35 -6 58 -30 76 -78 14
-35 15 -100 13 -481 -3 -485 -3 -487 -67 -519 -87 -45 -182 0 -199 95 -9 49
-8 835 1 886 11 63 68 111 125 107 15 -1 27 -3 27 -4z"/>
<path d="M14380 5156 c-19 -7 -39 -13 -45 -15 -41 -14 -60 -26 -99 -64 -26
-26 -53 -68 -67 -103 l-24 -59 0 -505 c0 -504 0 -505 23 -562 55 -137 191
-210 363 -194 115 10 193 50 250 129 55 76 62 123 63 420 1 148 -1 272 -4 276
-8 13 -340 9 -341 -3 0 -6 -1 -52 -2 -103 l-2 -92 65 -3 65 -3 -1 -151 c-2
-199 -19 -247 -90 -260 -90 -17 -143 13 -160 89 -6 23 -9 234 -9 477 1 380 3
439 17 466 22 41 40 55 80 61 18 3 34 6 36 8 2 2 23 -3 47 -12 62 -21 83 -72
85 -213 l0 -36 103 4 c56 2 104 6 106 8 2 2 5 34 6 71 1 78 -17 169 -45 223
-30 60 -103 117 -176 139 -73 22 -192 25 -244 7z"/>
<path d="M17352 5155 c-137 -42 -211 -121 -241 -257 -14 -60 -14 -888 -1 -960
36 -190 166 -291 368 -284 186 5 308 108 337 284 4 24 7 243 7 487 1 438 0
445 -23 517 -19 61 -32 82 -78 128 -46 46 -68 60 -126 78 -80 25 -177 28 -243
7z m174 -207 c16 -7 38 -31 51 -53 22 -39 22 -41 20 -490 -2 -409 -4 -453 -20
-482 -49 -90 -191 -84 -233 9 -17 39 -19 74 -19 478 0 404 2 439 19 478 17 38
43 58 96 74 22 7 55 2 86 -14z"/>
<path d="M21321 5148 c-82 -25 -156 -96 -186 -178 -19 -52 -20 -80 -20 -560 0
-584 -1 -574 90 -665 61 -61 129 -88 235 -91 91 -3 165 16 229 57 45 30 104
106 104 135 0 8 3 14 7 14 4 0 7 6 7 13 0 6 4 32 8 57 6 34 10 140 10 250 0 1
-48 3 -107 6 l-108 6 0 -29 c-2 -155 -8 -213 -27 -245 -48 -83 -168 -79 -213
8 -23 44 -26 906 -3 963 26 67 118 96 176 57 52 -35 64 -72 66 -208 l1 -66
102 5 c57 2 105 7 107 9 3 3 4 44 3 92 -1 74 -6 116 -25 200 -6 24 -65 100
-99 125 -82 63 -239 83 -357 45z"/>
<path d="M2650 5150 l-45 -5 0 -735 1 -735 315 -3 315 -2 -1 102 0 103 -203
-1 -202 0 0 222 0 221 148 -1 c81 -1 154 0 163 2 14 3 16 19 15 105 l-1 101
-162 -1 -163 0 0 212 0 211 188 -1 c103 0 194 1 203 3 13 3 15 20 15 103 l-1
99 -30 0 c-288 4 -519 4 -555 0z"/>
<path d="M3600 5150 l-35 -5 0 -595 c0 -582 0 -596 -21 -630 -28 -49 -86 -69
-166 -58 -34 4 -62 7 -64 6 -14 -16 -20 -186 -6 -200 16 -16 215 -16 268 -1
61 19 126 67 156 115 57 91 58 107 58 765 l0 603 -22 1 c-13 0 -48 1 -78 2
-30 1 -71 0 -90 -3z"/>
<path d="M3976 5144 c-8 -7 -10 -193 -9 -605 2 -327 4 -605 6 -619 11 -91 78
-190 155 -229 88 -45 230 -51 337 -15 35 12 67 34 107 76 32 32 57 62 56 66 0
4 1 14 5 22 24 65 26 117 27 696 l0 615 -112 -3 -111 -3 -1 -600 c-1 -556 -2
-603 -19 -628 -25 -38 -64 -55 -120 -52 -56 3 -92 31 -107 84 -5 20 -10 273
-10 615 0 319 -2 581 -4 583 -9 9 -191 7 -200 -3z"/>
<path d="M4807 5152 c-26 -2 -45 -7 -43 -11 5 -7 22 -94 30 -151 1 -14 11 -70
20 -125 10 -55 19 -109 21 -120 1 -11 6 -36 9 -55 14 -82 17 -97 21 -130 3
-19 8 -44 10 -56 3 -12 7 -39 10 -60 3 -21 10 -61 15 -89 6 -27 12 -67 16 -89
3 -21 7 -46 9 -55 1 -9 6 -36 10 -61 4 -25 9 -54 12 -65 2 -11 5 -31 7 -45 3
-24 21 -132 30 -175 2 -11 10 -59 17 -107 l13 -88 148 0 c134 0 148 2 149 18
0 9 2 24 4 32 1 8 6 33 9 55 4 23 9 52 11 65 6 29 7 33 35 205 12 72 24 137
25 145 2 8 7 40 11 70 9 59 10 69 14 73 1 1 3 16 5 32 2 17 11 73 20 125 9 52
18 107 21 123 2 15 7 42 10 60 3 17 8 43 9 57 2 14 6 35 9 46 2 12 12 71 21
130 10 60 19 118 22 129 2 11 6 33 8 49 2 15 7 37 10 47 6 18 0 19 -87 20 -84
1 -130 0 -135 -4 -1 -2 -8 -42 -19 -114 -3 -21 -9 -65 -14 -98 -5 -33 -12 -82
-15 -110 -4 -27 -8 -57 -10 -65 -2 -8 -7 -37 -10 -65 -3 -27 -8 -61 -10 -75
-3 -14 -7 -43 -11 -65 -3 -22 -7 -51 -9 -65 -2 -14 -9 -61 -15 -105 -6 -44
-13 -91 -16 -105 -2 -14 -7 -45 -10 -70 -3 -25 -8 -58 -11 -75 -6 -37 -10 -64
-12 -89 -2 -31 -11 -13 -17 35 -3 24 -14 98 -24 164 -11 66 -22 143 -26 170
-3 28 -8 59 -10 70 -3 11 -7 40 -10 65 -3 25 -7 56 -9 70 -2 14 -9 54 -14 90
-5 36 -13 83 -16 105 -4 22 -8 54 -10 70 -4 30 -12 85 -21 140 -2 17 -7 50
-10 75 -4 25 -7 46 -9 48 -3 4 -138 7 -188 4z"/>
<path d="M6477 5151 c-6 -2 -14 -7 -17 -12 -3 -4 -5 -335 -5 -736 l0 -728 108
-3 107 -3 0 493 1 493 50 -165 c27 -91 64 -210 80 -264 17 -54 32 -104 34
-110 1 -6 5 -18 8 -26 3 -8 29 -94 57 -190 28 -96 56 -187 62 -202 l10 -28
109 0 109 0 -2 741 -3 742 -87 -1 c-49 0 -95 -1 -103 -1 -13 -1 -15 -58 -16
-443 l-1 -443 -30 95 c-16 52 -42 138 -58 190 -16 52 -48 155 -70 229 -23 73
-43 141 -45 150 -7 28 -65 214 -68 217 -5 5 -216 9 -230 5z"/>
<path d="M7585 5150 c-16 -3 -31 -12 -32 -20 -1 -8 -13 -78 -27 -155 -14 -77
-28 -158 -31 -180 -3 -23 -8 -52 -10 -65 -3 -14 -8 -41 -11 -60 -3 -19 -12
-71 -20 -115 -8 -44 -17 -96 -20 -115 -3 -19 -7 -42 -9 -50 -3 -8 -7 -33 -10
-55 -8 -49 -52 -311 -59 -344 -3 -14 -8 -47 -11 -74 -3 -28 -8 -53 -9 -56 -2
-3 -7 -24 -10 -46 -13 -80 -18 -110 -23 -127 -4 -16 6 -18 111 -18 l116 0 1
28 c0 15 2 36 5 47 2 11 6 40 9 65 3 25 8 52 10 60 2 8 7 40 10 70 4 30 9 57
12 60 2 2 56 5 119 6 133 2 127 6 138 -91 3 -22 7 -54 10 -70 2 -17 7 -50 11
-75 3 -25 8 -57 11 -72 l6 -28 114 0 c113 0 114 0 110 23 -10 46 -26 133 -30
167 -3 19 -8 46 -11 60 -3 14 -7 39 -10 55 -2 17 -14 84 -25 150 -12 66 -25
147 -31 180 -5 33 -12 71 -15 85 -3 14 -6 34 -8 45 -4 25 -17 103 -22 130 -2
11 -15 87 -29 170 -14 82 -28 161 -31 175 -2 14 -7 41 -9 60 -3 19 -10 58 -16
87 -5 28 -11 61 -12 72 -1 19 -8 21 -62 22 -33 0 -85 1 -115 2 -30 1 -68 0
-85 -3z m129 -395 c3 -27 7 -61 10 -75 2 -14 7 -50 11 -80 3 -30 8 -62 10 -70
2 -8 7 -37 10 -65 3 -27 10 -79 16 -115 6 -36 13 -82 16 -102 l5 -38 -89 0
c-50 0 -92 2 -95 5 -3 4 -2 23 2 43 5 20 11 62 15 92 3 30 8 62 10 70 3 8 7
35 10 60 3 25 7 56 9 70 2 14 7 52 12 85 4 33 8 62 9 65 1 3 5 34 9 69 9 72
21 66 30 -14z"/>
<path d="M8051 5145 c-6 -8 -7 -121 -2 -187 1 -16 14 -18 119 -18 l118 0 -1
-632 0 -633 113 -3 112 -3 0 636 0 635 119 0 120 0 0 105 c1 102 0 105 -22
105 -12 0 -168 1 -345 3 -207 1 -326 -2 -331 -8z"/>
<path d="M9009 5152 l-156 -2 0 -740 0 -740 314 0 c243 0 313 3 314 13 6 64 2
180 -6 185 -5 4 -95 7 -200 8 -104 1 -192 2 -195 3 -3 0 -5 99 -5 219 l1 217
164 0 165 1 0 98 c0 78 -3 99 -15 105 -8 3 -81 6 -162 5 -82 0 -148 2 -149 5
-7 38 -2 404 6 409 6 4 89 8 185 8 96 1 184 2 195 3 19 1 20 8 19 98 0 77 -3
98 -15 100 -28 5 -307 8 -460 5z"/>
<path d="M9865 5150 c-3 -5 -7 -149 -6 -192 1 -16 14 -18 121 -18 l119 0 0
-612 c0 -337 0 -623 0 -635 1 -22 4 -23 111 -23 107 0 110 1 111 23 0 12 1
298 1 635 l1 612 118 0 119 0 1 38 c2 101 0 164 -4 168 -7 7 -688 10 -692 4z"/>
<path d="M10720 5150 l-55 -5 0 -738 0 -737 113 0 112 0 0 324 0 323 128 0
c70 -1 129 -4 132 -8 3 -4 5 -149 5 -323 l-1 -316 112 0 112 0 1 739 0 739
-32 3 c-18 2 -68 2 -112 -1 l-80 -5 0 -303 c0 -167 -4 -306 -8 -309 -7 -4 -55
-5 -212 -3 l-45 0 0 310 c0 241 -3 310 -12 311 -74 3 -111 3 -158 -1z"/>
<path d="M13773 5152 l-22 -3 -3 -607 c-3 -645 -2 -631 -51 -661 -29 -19 -98
-21 -135 -6 -22 10 -38 27 -50 53 -16 36 -17 90 -17 630 l0 592 -107 0 -108 0
0 -602 c0 -370 4 -620 11 -647 16 -71 45 -125 87 -163 72 -65 147 -89 266 -84
179 7 282 89 324 256 5 24 8 1221 2 1230 -5 9 -157 18 -197 12z"/>
<path d="M15083 5152 l-72 -3 0 -739 0 -740 112 0 112 0 0 323 0 322 133 1
132 0 0 -323 0 -323 109 0 c78 0 110 4 113 13 3 10 2 1451 -1 1467 -1 3 -22 4
-48 3 -27 -1 -76 -2 -110 -2 l-63 -1 0 -310 0 -310 -133 0 -132 0 0 309 0 309
-40 4 c-22 2 -72 2 -112 0z"/>
<path d="M16323 5152 c-29 -2 -53 -6 -54 -10 -1 -4 -2 -337 -3 -740 l-1 -732
113 0 112 0 0 315 0 315 52 -2 c58 -3 51 9 96 -158 12 -41 38 -133 58 -205 20
-71 37 -134 39 -140 1 -5 4 -17 7 -25 3 -8 11 -34 17 -57 l12 -43 118 0 118 0
-23 78 c-12 42 -50 167 -84 277 -87 282 -98 325 -89 325 22 0 100 97 120 149
27 68 40 276 24 363 -19 99 -38 139 -91 192 -69 69 -139 93 -286 95 -56 2
-125 3 -153 4 -27 1 -74 1 -102 -1z m345 -227 c52 -31 66 -74 66 -200 1 -174
-33 -217 -171 -220 l-73 -2 0 222 0 222 73 -2 c51 -1 83 -7 105 -20z"/>
<path d="M17934 5152 l-41 -3 -2 -104 -2 -105 121 0 120 0 0 -635 0 -635 113
0 112 0 0 633 0 632 120 5 120 5 0 99 c0 65 -4 100 -11 103 -14 5 -589 9 -650
5z"/>
<path d="M18898 5152 c-106 -3 -101 0 -113 -76 -3 -21 -8 -48 -10 -60 -3 -12
-7 -37 -10 -56 -2 -19 -6 -46 -9 -60 -3 -14 -7 -37 -8 -52 -1 -16 -6 -28 -11
-28 -4 0 -6 -4 -3 -9 3 -5 1 -31 -4 -57 -6 -27 -12 -62 -14 -79 -2 -16 -12
-73 -21 -125 -23 -131 -23 -130 -30 -175 -3 -22 -20 -116 -37 -210 -16 -93
-34 -195 -39 -225 -4 -30 -11 -68 -14 -85 -3 -16 -8 -46 -11 -65 -13 -76 -15
-86 -20 -102 -5 -16 5 -18 109 -18 l115 0 7 53 c4 28 9 61 11 72 2 10 6 37 9
60 13 93 17 121 21 136 3 13 24 15 126 15 136 -1 121 9 133 -90 3 -27 7 -52 9
-55 2 -3 7 -31 10 -61 4 -30 8 -64 11 -75 2 -11 4 -28 4 -37 1 -16 13 -18 117
-18 l116 0 -6 28 c-4 15 -9 44 -11 66 -3 21 -7 41 -9 45 -2 3 -7 33 -11 65 -3
33 -8 62 -10 65 -1 3 -6 24 -9 46 -13 78 -31 181 -41 235 -3 13 -7 40 -10 60
-3 20 -8 47 -10 60 -3 14 -7 41 -10 60 -3 19 -7 46 -10 60 -6 30 -32 179 -41
234 -3 21 -8 48 -11 60 -2 11 -6 32 -8 46 -2 14 -4 25 -5 25 -1 0 -3 11 -4 25
-1 14 -13 87 -26 162 l-24 136 -46 4 c-25 2 -89 2 -142 0z m77 -537 c3 -27 8
-63 11 -80 6 -37 13 -84 18 -127 2 -18 9 -62 15 -98 18 -107 24 -100 -79 -100
-103 0 -99 -5 -80 101 5 30 12 74 15 99 3 25 8 56 10 70 8 43 13 83 20 140 3
30 8 66 10 80 3 14 7 41 11 60 6 37 11 62 14 70 2 6 27 -145 35 -215z"/>
<path d="M20538 5152 c-62 -3 -62 -4 -72 -77 -3 -22 -11 -62 -17 -88 -6 -26
-9 -51 -5 -54 3 -3 1 -13 -3 -22 -5 -9 -12 -36 -15 -61 -3 -25 -8 -54 -10 -65
-2 -11 -16 -87 -30 -170 -14 -82 -28 -161 -31 -175 -2 -13 -7 -42 -10 -65 -3
-22 -12 -76 -20 -120 -8 -44 -22 -118 -30 -165 -9 -47 -18 -101 -21 -120 -2
-19 -7 -44 -9 -56 -3 -12 -7 -39 -10 -60 -7 -51 -25 -144 -31 -166 -5 -16 5
-18 109 -18 l115 0 7 53 c4 28 9 61 10 72 2 11 7 40 10 65 8 63 16 112 21 131
4 14 21 17 112 17 120 0 138 -3 139 -21 1 -20 12 -105 17 -129 3 -13 8 -45 11
-73 3 -27 8 -65 11 -82 l6 -33 114 0 c63 0 114 2 114 4 0 2 -7 39 -14 82 -8
44 -17 93 -19 109 -3 17 -10 57 -16 90 -6 33 -13 76 -16 95 -3 19 -10 58 -15
85 -5 28 -12 66 -14 85 -2 19 -7 42 -10 50 -2 8 -7 33 -10 55 -3 22 -8 51 -10
65 -14 81 -48 275 -51 298 -2 15 -9 56 -16 92 -6 36 -13 74 -14 85 -6 38 -17
98 -21 119 -2 11 -10 54 -16 94 -11 71 -12 72 -42 73 -17 0 -56 1 -86 2 -30 1
-81 1 -112 -1z m95 -377 c6 -57 26 -196 34 -240 3 -16 6 -41 8 -55 7 -56 15
-118 25 -175 17 -101 22 -95 -81 -95 l-91 0 6 54 c4 29 9 64 11 76 2 12 7 48
11 79 3 31 10 75 15 98 5 24 9 46 8 50 -1 5 0 10 1 13 1 3 3 16 5 30 1 14 5
43 9 65 3 22 8 60 11 85 11 87 20 92 28 15z"/>
<path d="M21873 5152 c-13 -2 -23 -9 -24 -15 0 -7 -1 -52 -1 -102 l0 -90 120
-3 119 -3 1 -627 c0 -345 1 -630 1 -634 1 -5 51 -8 111 -8 l110 0 0 635 0 635
120 0 121 0 -3 106 -3 106 -325 2 c-179 0 -335 0 -347 -2z"/>
<path d="M1745 4410 l0 -740 112 0 111 0 1 288 c0 158 0 300 0 315 1 27 2 28
53 24 l51 -3 24 -84 c13 -47 32 -114 42 -150 72 -260 94 -338 103 -362 l10
-28 118 0 117 0 -19 58 c-11 31 -21 64 -23 72 -1 8 -22 76 -44 150 -23 74 -44
144 -47 155 -2 11 -20 69 -38 129 l-34 109 32 26 c46 39 68 69 95 130 21 48
25 75 28 191 5 201 -17 287 -94 363 -82 83 -128 94 -386 96 l-213 2 1 -741z
m404 514 c49 -29 60 -62 65 -184 6 -180 -31 -231 -171 -235 l-73 -2 -1 46 c-2
150 1 383 6 391 10 15 141 3 174 -16z"/>
<path d="M5678 5113 c-2 -21 0 -62 3 -91 3 -29 1 -55 -3 -58 -5 -3 -6 -9 -3
-14 4 -7 6 -173 3 -260 0 -8 0 -51 1 -95 0 -44 0 -91 0 -105 -1 -14 -1 -79 0
-145 0 -66 0 -127 -1 -135 0 -8 0 -51 1 -95 0 -44 0 -91 0 -105 -1 -14 0 -79
1 -146 0 -66 0 -125 -1 -130 -1 -5 -1 -21 0 -36 l1 -28 315 0 316 0 -3 103 -3
102 -198 -1 c-192 0 -198 1 -202 20 -2 12 -3 111 -2 221 l2 200 160 0 160 1 5
93 c3 51 2 98 -2 104 -4 7 -63 11 -165 11 l-158 1 -1 211 0 210 200 0 201 0 3
102 3 102 -315 0 -315 0 -3 -37z"/>
<path d="M11555 4413 l0 -738 113 -3 112 -3 0 315 0 314 52 -1 51 -2 29 -100
c36 -123 67 -235 72 -256 5 -20 41 -144 62 -216 l16 -53 118 0 119 0 -15 43
c-9 23 -18 52 -20 65 -3 13 -11 42 -18 65 -8 23 -24 76 -36 117 -11 41 -24 82
-27 90 -3 8 -8 22 -10 30 -2 8 -21 71 -42 140 l-38 125 22 15 c44 31 85 84
107 139 20 50 22 74 23 226 0 155 -2 175 -23 228 -26 62 -80 125 -132 152 -72
37 -118 43 -328 45 l-207 1 0 -738z m403 511 c52 -30 66 -73 67 -200 0 -171
-33 -215 -171 -219 -59 -2 -74 0 -76 13 -2 8 -2 108 0 222 l3 207 73 -2 c50
-1 83 -8 104 -21z"/>
<path d="M19440 5098 c-1 -64 -1 -1337 0 -1390 l0 -38 110 0 c98 0 110 2 111
18 0 9 1 150 1 312 l0 295 52 2 52 2 73 -262 c40 -144 80 -286 89 -314 l16
-53 119 0 c91 0 118 3 114 13 -2 6 -19 62 -37 122 -18 61 -36 119 -40 130 -10
27 -52 166 -54 179 -1 6 -5 16 -8 22 -4 6 -9 22 -12 37 -2 14 -14 57 -27 95
l-22 69 55 55 c80 80 99 146 100 340 0 81 -3 151 -7 157 -3 6 -8 19 -10 28
-16 81 -99 176 -180 207 -43 17 -82 20 -272 24 l-223 4 0 -54z m399 -173 c54
-27 66 -65 66 -200 0 -97 -3 -126 -18 -153 -25 -46 -82 -70 -160 -68 l-62 1
-2 200 c-1 110 0 210 3 222 4 22 8 23 73 19 38 -3 83 -12 100 -21z"/>
<path d="M4095 3132 c-3 -3 -16 -7 -28 -9 -12 -2 -40 -13 -62 -24 -132 -69
-191 -276 -129 -454 41 -118 162 -192 299 -182 191 13 300 147 294 363 -3 131
-62 233 -159 277 -25 12 -52 22 -60 24 -32 6 -150 10 -155 5z m161 -97 c64
-26 105 -84 120 -165 10 -56 10 -54 1 -119 -15 -106 -68 -179 -145 -201 -112
-31 -216 9 -263 103 -47 90 -31 266 29 330 67 71 166 91 258 52z"/>
<path d="M4755 3118 c-132 -44 -205 -169 -201 -344 2 -105 28 -176 86 -234
102 -104 282 -107 387 -8 l32 31 7 -38 c6 -35 34 -58 59 -49 8 3 13 284 6 339
-1 12 -266 13 -277 2 -11 -11 -10 -67 1 -68 6 -1 52 -3 102 -4 51 -1 95 -3 97
-6 2 -2 -2 -26 -9 -52 -23 -89 -75 -134 -167 -144 -153 -15 -240 85 -233 268
6 160 91 252 227 243 65 -4 126 -39 151 -86 17 -34 23 -38 58 -38 44 0 45 3
22 62 -46 118 -204 175 -348 126z"/>
<path d="M6036 3133 c-2 -2 -16 -6 -32 -9 -36 -6 -93 -51 -117 -91 -21 -36
-28 -104 -16 -149 17 -58 88 -99 204 -118 53 -8 148 -36 162 -47 7 -6 15 -26
19 -45 16 -84 -49 -135 -166 -130 -37 1 -79 10 -97 19 -33 18 -74 82 -66 105
3 8 -9 12 -41 12 -51 0 -56 -9 -34 -71 31 -93 104 -140 220 -145 86 -4 151 12
204 48 80 54 94 188 27 259 -29 31 -74 49 -197 78 -122 29 -150 46 -154 97 -3
46 24 85 73 101 39 13 118 7 155 -12 30 -15 60 -61 60 -90 0 -11 11 -15 44
-15 l44 0 -4 36 c-13 101 -90 160 -221 167 -35 2 -64 2 -67 0z"/>
<path d="M15175 3130 c-99 -15 -165 -94 -165 -195 0 -55 19 -96 56 -120 22
-14 141 -54 159 -53 5 0 85 -14 95 -17 79 -23 107 -86 66 -148 -33 -49 -132
-70 -217 -47 -50 14 -75 38 -89 87 -13 44 -29 53 -70 43 -21 -5 -24 -11 -22
-35 9 -69 46 -121 113 -156 59 -32 212 -34 274 -4 85 41 115 90 114 180 -1
102 -59 147 -235 181 -40 7 -122 35 -137 46 -27 20 -29 74 -4 114 28 44 54 51
169 45 36 -1 94 -53 101 -91 6 -27 10 -30 47 -30 35 0 40 3 40 23 0 122 -135
203 -295 177z"/>
<path d="M18618 3070 c-99 -159 -132 -310 -103 -470 21 -119 120 -300 163
-300 28 0 28 8 -1 62 -29 55 -64 144 -72 183 -3 17 -8 41 -10 55 -8 40 -8 170
-1 228 9 63 32 133 75 223 17 36 31 69 31 72 0 4 -11 6 -24 5 -17 -2 -33 -18
-58 -58z"/>
<path d="M22037 3122 c-3 -4 12 -42 33 -84 53 -107 73 -193 74 -313 1 -152
-18 -235 -88 -373 l-26 -52 27 0 c24 0 34 11 67 66 44 74 80 159 95 224 16 71
7 235 -18 310 -29 88 -111 222 -139 226 -11 2 -23 0 -25 -4z"/>
<path d="M1762 2801 l0 -319 26 -4 c61 -8 61 -8 64 135 l3 132 115 0 c186 -1
193 -7 201 -190 1 -33 4 -65 6 -71 3 -9 102 -9 111 1 2 2 -4 14 -13 28 -10 16
-18 56 -21 113 -4 78 -24 144 -44 144 -3 0 -11 4 -19 9 -12 8 -8 15 17 36 40
33 50 52 56 101 7 49 -8 103 -36 139 -39 50 -75 58 -279 61 l-186 3 -1 -318z
m382 209 c28 -29 37 -71 24 -117 -15 -56 -43 -66 -189 -68 l-129 -2 0 108 0
107 135 -2 c129 -1 136 -3 159 -26z"/>
<path d="M3389 3111 c-1 -3 -2 -147 -3 -318 -1 -272 1 -313 14 -314 20 -1 350
-1 375 0 20 1 23 11 16 68 -1 8 -41 11 -138 11 -76 0 -148 1 -160 1 l-22 1 0
258 c0 141 0 267 0 279 -1 20 -6 23 -41 21 -22 -1 -41 -4 -41 -7z"/>
<path d="M5279 3111 c-1 -3 -2 -147 -3 -319 -1 -271 1 -312 14 -313 17 -1 441
-1 453 0 4 1 7 18 7 40 l0 39 -177 0 c-98 0 -185 0 -194 1 -14 1 -17 16 -17
104 l-1 102 174 -2 c96 -1 175 1 176 5 6 39 4 64 -3 68 -5 4 -85 6 -177 5
l-168 0 -1 98 -2 98 190 -1 c162 -1 190 1 191 14 0 8 2 27 3 41 l2 27 -233 -1
c-128 0 -233 -3 -234 -6z"/>
<path d="M6454 2800 l0 -318 37 -4 c21 -2 41 -2 46 -1 4 2 7 68 6 148 l-2 145
164 0 164 0 3 -147 3 -147 38 1 c21 0 40 3 43 6 7 6 6 615 -1 626 -2 5 -23 9
-45 9 l-40 1 0 -135 0 -134 -164 0 -164 0 1 134 2 134 -46 0 -45 1 0 -319z"/>
<path d="M7050 3111 c0 -3 6 -26 14 -51 7 -25 14 -48 15 -52 1 -4 3 -13 5 -20
3 -7 7 -24 9 -38 3 -14 8 -34 11 -45 2 -11 28 -111 57 -222 57 -218 54 -214
120 -205 23 3 29 12 39 50 7 26 16 61 21 77 22 73 61 212 64 230 8 38 44 158
49 162 3 3 8 -12 11 -33 4 -22 10 -48 15 -59 4 -11 20 -65 35 -120 15 -55 30
-109 33 -120 3 -11 7 -22 7 -25 1 -3 7 -25 14 -50 7 -25 16 -61 22 -81 8 -33
11 -35 46 -32 57 4 60 7 74 70 7 32 13 60 14 63 1 3 5 19 10 35 4 17 23 87 42
157 18 70 35 135 37 145 2 10 12 47 21 83 9 36 17 69 18 75 1 5 -19 10 -44 11
l-46 2 -19 -81 c-10 -45 -19 -86 -19 -92 -1 -5 -14 -62 -29 -125 -29 -120 -34
-139 -42 -180 -8 -38 -12 -36 -24 11 -6 24 -17 67 -25 94 -45 155 -94 333 -97
350 -3 16 -12 20 -50 22 -26 1 -50 -2 -52 -6 -5 -7 -70 -237 -81 -281 -11 -47
-58 -206 -63 -215 -4 -5 -10 8 -13 30 -6 35 -33 162 -44 205 -3 8 -16 65 -30
125 -36 156 -29 144 -81 143 -24 0 -44 -3 -44 -7z"/>
<path d="M8035 2987 c-28 -72 -50 -134 -51 -137 -1 -5 -18 -48 -31 -80 -3 -8
-7 -17 -7 -20 -2 -8 -27 -73 -37 -95 -5 -11 -11 -31 -14 -44 -2 -12 -8 -28
-13 -35 -10 -15 -35 -87 -30 -91 5 -5 30 -8 58 -6 22 1 29 9 45 59 10 31 21
62 24 67 3 6 7 19 8 30 2 11 8 24 12 28 8 8 164 12 242 8 10 -1 25 -30 44 -92
31 -97 42 -109 97 -101 34 5 36 -7 -22 152 -23 63 -53 147 -66 185 -14 39 -29
79 -34 90 -5 11 -24 63 -42 115 l-33 95 -50 2 -50 3 -50 -133z m144 -100 c22
-65 41 -122 41 -126 0 -5 -42 -8 -94 -8 l-93 0 10 36 c6 20 14 38 17 41 3 3 7
12 9 20 21 75 56 169 62 163 4 -5 25 -61 48 -126z"/>
<path d="M8509 3082 c0 -20 -1 -164 -2 -319 -2 -310 -5 -295 59 -283 l30 5 0
130 0 130 120 0 c65 0 129 -4 141 -9 39 -16 51 -48 58 -152 3 -54 7 -100 9
-101 5 -6 107 -6 112 -1 3 3 -3 13 -12 23 -12 11 -19 38 -21 78 -2 34 -6 76
-7 92 -2 17 -4 36 -5 43 -1 8 -15 27 -33 44 l-32 29 31 27 c40 35 49 56 52
119 2 53 -16 103 -48 133 -40 37 -74 43 -263 46 l-188 2 -1 -36z m364 -57 c45
-20 61 -118 24 -160 -30 -34 -63 -41 -192 -41 l-110 1 0 95 c-1 52 3 100 8
107 9 13 240 12 270 -2z"/>
<path d="M9323 3114 c4 -4 -11 -46 -68 -189 -4 -11 -9 -24 -10 -30 -2 -8 -36
-98 -65 -170 -4 -11 -20 -54 -35 -95 -15 -41 -33 -89 -41 -107 -8 -17 -14 -35
-14 -40 0 -6 41 -8 81 -4 6 1 13 18 58 141 l21 55 120 -1 c67 -1 123 -4 126
-6 2 -3 18 -46 36 -96 21 -63 36 -92 47 -93 9 0 28 -2 44 -3 23 -1 27 2 27 26
0 15 -5 28 -12 28 -6 0 -9 2 -6 5 3 3 -15 58 -39 123 -24 64 -45 122 -47 127
-3 16 -57 167 -71 200 -7 17 -20 53 -29 81 l-16 51 -56 1 c-31 0 -54 -2 -51
-4z m73 -149 c4 -11 9 -29 11 -39 2 -11 8 -25 14 -33 6 -7 9 -13 6 -13 -3 0 5
-28 19 -62 13 -34 24 -63 24 -64 0 -1 -43 -1 -95 -1 -52 0 -95 4 -95 8 0 5 4
18 9 31 12 30 23 60 27 73 1 6 14 41 28 79 14 38 26 72 27 75 0 6 11 -17 25
-54z"/>
<path d="M9730 2801 l0 -319 36 -4 c28 -3 38 0 43 13 3 10 6 126 5 259 0 132
2 237 6 233 4 -4 39 -60 79 -123 39 -63 75 -122 81 -130 5 -8 44 -69 85 -135
72 -115 76 -119 109 -118 66 1 62 -19 62 324 l-1 314 -40 0 -40 0 -1 -245 c-1
-135 -2 -249 -3 -254 -1 -5 -69 101 -152 235 -83 134 -158 249 -165 255 -8 6
-34 12 -59 12 l-44 1 -1 -318z"/>
<path d="M10830 3109 c0 -8 65 -190 172 -484 22 -60 42 -118 45 -127 3 -10 13
-18 22 -19 9 0 31 -1 49 -2 17 -1 33 1 33 6 4 23 18 64 34 102 7 17 45 120 84
230 40 110 80 221 91 247 10 26 16 50 12 52 -15 9 -82 3 -90 -7 -8 -12 -41
-103 -46 -129 -2 -7 -6 -20 -9 -28 -13 -34 -68 -200 -72 -217 -2 -10 -15 -49
-29 -88 -22 -64 -25 -68 -34 -45 -5 14 -44 131 -87 260 -43 129 -83 241 -88
247 -10 14 -87 15 -87 2z"/>
<path d="M11810 3079 c0 -30 4 -39 18 -40 9 -1 57 -2 107 -2 l90 -2 0 -273 c0
-205 3 -275 12 -280 7 -5 27 -6 45 -4 l33 4 -1 277 0 278 85 0 c139 2 129 -2
129 41 l1 38 -260 1 -259 1 0 -39z"/>
<path d="M13185 2801 l0 -316 25 -5 c14 -3 34 -4 45 -2 19 3 20 11 19 133 -1
71 2 129 5 130 3 1 62 2 131 3 129 2 166 12 201 52 49 56 63 148 34 221 -17
42 -64 79 -116 93 -19 4 -104 8 -189 8 l-155 0 0 -317z m343 220 c68 -37 58
-154 -15 -184 -28 -11 -191 -17 -234 -8 -5 1 -5 176 0 203 2 12 224 3 249 -11z"/>
<path d="M13788 3102 c-1 -10 -3 -152 -3 -317 l1 -299 24 -6 c14 -3 34 -4 45
-2 19 3 20 11 19 125 0 67 3 127 8 133 5 7 50 10 128 9 172 -3 177 -8 184
-178 2 -43 5 -80 7 -82 5 -4 63 -8 96 -6 l22 1 -18 33 c-11 17 -20 43 -20 57
-1 24 -6 103 -9 144 -1 10 -19 34 -39 52 -23 21 -31 34 -21 34 17 0 60 51 70
84 26 88 -15 186 -92 219 -14 6 -108 11 -212 13 -166 2 -187 0 -190 -14z m365
-77 c44 -19 59 -124 23 -164 -27 -29 -76 -39 -186 -36 -52 1 -100 3 -106 4 -6
0 -9 38 -8 104 1 56 2 103 3 105 2 5 258 -6 274 -13z"/>
<path d="M14426 3111 c-2 -3 -4 -147 -4 -318 0 -285 1 -313 16 -314 94 -4 444
0 450 5 3 4 7 22 7 40 l0 34 -188 -1 c-103 0 -190 3 -194 7 -9 9 -10 186 -1
192 4 3 84 5 178 6 l170 1 0 38 c0 45 20 41 -196 40 -114 -1 -153 2 -156 11
-2 7 -3 51 -3 98 l0 85 190 1 190 1 3 40 3 40 -231 0 c-127 0 -232 -2 -234 -6z"/>
<path d="M15629 3113 c-1 -4 -2 -147 -3 -317 -1 -293 0 -309 17 -315 11 -4 31
-5 46 -3 l26 4 0 314 c0 173 0 314 0 315 0 5 -85 8 -86 2z"/>
<path d="M15859 3102 c-1 -22 -1 -558 0 -597 l1 -30 130 1 c72 1 150 5 175 8
25 4 46 6 47 4 5 -5 71 44 91 67 75 85 103 259 61 382 -24 71 -54 109 -112
144 l-54 33 -169 2 c-153 3 -169 1 -170 -14z m338 -85 c77 -40 109 -144 89
-290 -10 -74 -55 -136 -111 -155 -41 -14 -203 -21 -220 -10 -8 5 -13 429 -6
470 0 4 49 5 109 4 77 -2 116 -7 139 -19z"/>
<path d="M16502 2799 c-1 -240 2 -319 11 -320 64 -3 449 -1 453 3 5 5 8 43 5
65 -1 8 -53 11 -183 11 -101 0 -187 1 -193 1 -6 1 -10 41 -10 101 l0 100 65 1
c36 0 116 1 178 1 l112 0 0 39 c0 35 -3 39 -25 39 -14 1 -93 2 -177 3 l-151 2
-1 88 c-1 49 1 93 4 97 3 4 82 8 175 8 94 0 178 1 188 1 15 1 18 8 15 39 l-3
37 -232 1 -231 1 0 -318z"/>
<path d="M17095 3110 c-8 -12 -9 -619 -2 -627 10 -10 77 -8 77 2 1 5 1 122 0
260 0 213 2 247 14 230 7 -11 80 -126 161 -255 81 -129 152 -237 156 -240 5
-3 21 -5 36 -4 15 1 35 3 43 3 14 1 16 40 15 319 l0 317 -42 2 -41 2 -1 -202
c0 -111 0 -227 0 -257 l-1 -55 -22 35 c-13 20 -28 44 -35 55 -6 11 -49 80 -95
154 -46 74 -101 164 -124 200 -40 65 -41 66 -87 69 -25 1 -49 -2 -52 -8z"/>
<path d="M17679 3116 c-1 -1 -2 -18 -3 -38 -2 -32 1 -38 18 -39 12 0 59 -2
106 -2 l85 -2 3 -276 2 -277 35 -4 c20 -2 40 -1 45 2 6 3 9 97 9 230 0 124 0
248 0 276 l1 51 99 0 c55 1 104 3 109 7 5 3 8 15 6 28 -1 13 -3 28 -3 34 -1 9
-71 12 -256 11 -140 0 -255 -1 -256 -1z"/>
<path d="M18905 3087 c-36 -11 -81 -52 -102 -90 -21 -41 -29 -117 -12 -118 8
0 26 -2 42 -3 22 -1 27 3 27 21 0 62 44 119 101 128 79 14 137 -27 143 -103 6
-64 -28 -106 -134 -163 -25 -13 -47 -26 -50 -29 -3 -3 -24 -17 -47 -32 -44
-29 -87 -92 -97 -143 -15 -73 -15 -75 2 -76 22 -1 383 -1 400 0 7 1 12 15 12
36 l0 35 -170 0 -171 0 12 23 c25 49 71 83 230 173 111 63 136 200 54 293 -50
55 -153 76 -240 48z"/>
<path d="M19410 3089 c-97 -29 -152 -154 -145 -334 5 -151 41 -231 119 -270
132 -66 262 10 293 170 11 55 12 223 2 262 -17 67 -52 125 -90 150 -42 28
-125 38 -179 22z m120 -74 c55 -28 81 -120 74 -263 -7 -152 -45 -217 -129
-217 -83 0 -125 76 -126 228 -1 143 21 215 74 247 38 24 68 25 107 5z"/>
<path d="M19915 3094 c-83 -21 -132 -78 -142 -162 -4 -36 -2 -52 6 -53 63 -6
66 -4 72 36 7 56 23 80 65 100 75 35 156 -1 174 -78 15 -70 -32 -126 -167
-196 -64 -34 -124 -91 -144 -137 -20 -49 -34 -124 -22 -125 11 -1 361 -1 394
0 24 1 27 5 26 36 l-1 35 -168 0 c-92 0 -168 3 -168 8 0 14 35 61 60 80 14 10
59 38 100 62 111 65 137 87 161 136 39 83 10 187 -67 235 -35 21 -134 34 -179
23z"/>
<path d="M20376 3080 c-46 -23 -59 -39 -94 -110 -24 -51 -26 -65 -26 -185 0
-134 2 -145 27 -205 45 -105 162 -149 265 -99 81 40 129 155 127 304 -3 145
-24 213 -82 266 -55 51 -148 63 -217 29z m168 -86 c13 -16 28 -45 31 -64 4
-19 9 -46 12 -60 14 -67 2 -209 -22 -265 -15 -37 -67 -75 -102 -75 -88 0 -132
91 -127 260 3 96 7 120 30 172 32 71 128 89 178 32z"/>
<path d="M21176 3085 c-22 -8 -48 -23 -58 -31 -40 -37 -79 -156 -55 -171 10
-6 36 -8 65 -4 4 1 9 15 10 33 6 76 63 123 140 115 84 -9 124 -82 91 -167 -9
-24 -40 -47 -191 -143 -58 -37 -99 -82 -117 -129 -14 -38 -23 -108 -14 -109
11 -1 349 -1 391 0 30 1 32 3 28 29 -2 15 -5 30 -5 35 -1 4 -75 7 -166 7 -91
0 -165 2 -165 5 0 4 7 19 15 36 15 27 111 99 134 99 5 0 11 4 13 8 2 4 26 21
53 37 89 51 129 115 122 196 -5 53 -36 108 -77 135 -48 32 -156 41 -214 19z"/>
<path d="M21752 3056 c-14 -37 -32 -56 -59 -61 -10 -2 -18 -4 -18 -5 0 -1 -13
-4 -28 -6 -38 -4 -54 -19 -54 -48 0 -22 3 -24 56 -24 31 0 64 0 74 -1 16 -1
17 -18 17 -215 l0 -214 31 -4 c17 -3 36 0 42 7 9 8 12 92 11 301 -1 159 -2
292 -3 297 0 4 -14 7 -29 7 -23 0 -30 -6 -40 -34z"/>
<path d="M2419 3072 c-12 -2 -16 -14 -14 -50 2 -64 -2 -72 -36 -72 -26 0 -29
-3 -29 -35 0 -35 7 -40 50 -36 13 1 15 -23 14 -161 0 -90 3 -177 8 -194 9 -36
42 -54 98 -54 42 0 66 24 50 50 -5 8 -6 18 -4 22 3 4 -8 8 -24 8 -16 0 -34 6
-40 13 -6 7 -10 73 -10 165 1 149 2 153 22 151 45 -3 58 1 52 16 -3 8 0 15 6
15 7 0 7 4 -1 13 -6 8 -8 17 -4 20 3 4 -12 7 -34 7 l-41 0 -1 56 c0 31 -3 59
-6 62 -7 7 -34 9 -56 4z"/>
<path d="M2772 2932 c-20 -13 -43 -32 -50 -41 -11 -14 -12 -13 -11 9 2 46 0
50 -37 50 -35 0 -36 -1 -32 -35 2 -19 2 -35 -2 -35 -6 0 -3 -208 4 -227 3 -7
1 -13 -5 -13 -6 0 -7 -5 -3 -11 4 -6 6 -42 5 -80 -1 -38 2 -69 6 -70 40 -4 63
-4 64 1 1 3 3 73 4 156 3 171 12 201 69 228 19 9 38 16 43 15 36 -6 42 4 34
67 -2 20 -51 12 -89 -14z"/>
<path d="M12643 2762 c-44 -3 -43 1 -34 -74 1 -5 49 -7 109 -5 l107 2 0 38 c0
36 -1 37 -35 38 -19 0 -51 1 -70 2 -19 1 -54 1 -77 -1z"/>
<path d="M20793 2762 c-41 -3 -42 -3 -39 -40 l2 -37 106 -2 106 -2 4 35 c2 19
0 38 -5 41 -10 6 -115 9 -174 5z"/>
<path d="M2909 2566 c0 -1 -2 -20 -4 -43 -2 -38 0 -41 24 -45 47 -7 66 4 65
37 -2 55 -2 55 -44 53 -22 -1 -40 -2 -41 -2z"/>
<path d="M10388 2562 c-2 -4 -3 -23 -3 -42 0 -31 3 -35 30 -40 54 -11 66 -2
63 44 -3 41 -4 41 -45 43 -23 2 -43 -1 -45 -5z"/>
<path d="M11397 2562 c-8 -11 -6 -82 2 -83 68 -8 89 2 85 41 -1 8 -2 22 -3 31
-1 11 -12 16 -40 17 -22 1 -42 -2 -44 -6z"/>
</g>
</svg>
